<?xml version="1.0" encoding="utf-8" ?>
<svg xmlns="http://www.w3.org/2000/svg" xmlns:xlink="http://www.w3.org/1999/xlink" width="700" height="500">
	<path fill="none" stroke="#8A2BE2" stroke-width="3" stroke-miterlimit="4" d="M0 83L50 83"/>
	<path fill="#DBC7AF" d="M0 93L0 73Q0 72.7545 0.0120454 72.5093Q0.0240909 72.2641 0.0481527 72.0198Q0.0722146 71.7755 0.108235 71.5327Q0.144255 71.2899 0.192147 71.0491Q0.240039 70.8083 0.299687 70.5702Q0.359336 70.3321 0.430597 70.0971Q0.501857 69.8622 0.584559 69.6311Q0.667261 69.4 0.761205 69.1732Q0.855148 68.9464 0.960107 68.7244Q1.06507 68.5025 1.18079 68.286Q1.29651 68.0695 1.42271 67.859Q1.54892 67.6484 1.6853 67.4443Q1.82169 67.2402 1.96792 67.043Q2.11416 66.8458 2.2699 66.6561Q2.42563 66.4663 2.59049 66.2844Q2.75535 66.1025 2.92893 65.9289Q3.10252 65.7553 3.28441 65.5905Q3.4663 65.4256 3.65607 65.2699Q3.84583 65.1142 4.04301 64.9679Q4.24018 64.8217 4.4443 64.6853Q4.64841 64.5489 4.85897 64.4227Q5.06953 64.2965 5.28603 64.1808Q5.50253 64.0651 5.72445 63.9601Q5.94636 63.8551 6.17316 63.7612Q6.39996 63.6673 6.6311 63.5846Q6.86224 63.5019 7.09715 63.4306Q7.33207 63.3593 7.5702 63.2997Q7.80833 63.24 8.0491 63.1921Q8.28987 63.1443 8.53269 63.1082Q8.77552 63.0722 9.01983 63.0482Q9.26413 63.0241 9.50932 63.012Q9.75451 63 10 63L40 63Q40.2455 63 40.4907 63.012Q40.7359 63.0241 40.9802 63.0482Q41.2245 63.0722 41.4673 63.1082Q41.7101 63.1443 41.9509 63.1921Q42.1917 63.24 42.4298 63.2997Q42.6679 63.3593 42.9028 63.4306Q43.1378 63.5019 43.3689 63.5846Q43.6 63.6673 43.8268 63.7612Q44.0536 63.8551 44.2755 63.9601Q44.4975 64.0651 44.714 64.1808Q44.9305 64.2965 45.141 64.4227Q45.3516 64.5489 45.5557 64.6853Q45.7598 64.8217 45.957 64.9679Q46.1542 65.1142 46.3439 65.2699Q46.5337 65.4256 46.7156 65.5905Q46.8975 65.7553 47.0711 65.9289Q47.2446 66.1025 47.4095 66.2844Q47.5744 66.4663 47.7301 66.6561Q47.8858 66.8458 48.0321 67.043Q48.1783 67.2402 48.3147 67.4443Q48.4511 67.6484 48.5773 67.859Q48.7035 68.0695 48.8192 68.286Q48.9349 68.5025 49.0399 68.7244Q49.1448 68.9464 49.2388 69.1732Q49.3327 69.4 49.4154 69.6311Q49.4981 69.8622 49.5694 70.0972Q49.6407 70.3321 49.7003 70.5702Q49.76 70.8083 49.8078 71.0491Q49.8557 71.2899 49.8918 71.5327Q49.9278 71.7755 49.9518 72.0198Q49.9759 72.2641 49.988 72.5093Q50 72.7545 50 73L50 93Q50 93.2455 49.988 93.4907Q49.9759 93.7359 49.9518 93.9802Q49.9278 94.2245 49.8918 94.4673Q49.8557 94.7101 49.8078 94.9509Q49.76 95.1917 49.7003 95.4298Q49.6407 95.6679 49.5694 95.9028Q49.4981 96.1377 49.4154 96.3689Q49.3327 96.6 49.2388 96.8268Q49.1448 97.0536 49.0399 97.2755Q48.9349 97.4975 48.8192 97.714Q48.7035 97.9305 48.5773 98.141Q48.4511 98.3516 48.3147 98.5557Q48.1783 98.7598 48.0321 98.957Q47.8858 99.1542 47.7301 99.3439Q47.5744 99.5337 47.4095 99.7156Q47.2446 99.8975 47.0711 100.071Q46.8975 100.245 46.7156 100.41Q46.5337 100.574 46.3439 100.73Q46.1542 100.886 45.957 101.032Q45.7598 101.178 45.5557 101.315Q45.3516 101.451 45.141 101.577Q44.9305 101.703 44.714 101.819Q44.4975 101.935 44.2755 102.04Q44.0536 102.145 43.8268 102.239Q43.6 102.333 43.3689 102.415Q43.1378 102.498 42.9028 102.569Q42.6679 102.641 42.4298 102.7Q42.1917 102.76 41.9509 102.808Q41.7101 102.856 41.4673 102.892Q41.2245 102.928 40.9802 102.952Q40.7359 102.976 40.4907 102.988Q40.2455 103 40 103L10 103Q9.75451 103 9.50932 102.988Q9.26413 102.976 9.01983 102.952Q8.77552 102.928 8.53269 102.892Q8.28987 102.856 8.0491 102.808Q7.80833 102.76 7.5702 102.7Q7.33207 102.641 7.09715 102.569Q6.86224 102.498 6.6311 102.415Q6.39996 102.333 6.17316 102.239Q5.94636 102.145 5.72445 102.04Q5.50253 101.935 5.28603 101.819Q5.06953 101.703 4.85897 101.577Q4.64841 101.451 4.4443 101.315Q4.24018 101.178 4.04301 101.032Q3.84583 100.886 3.65607 100.73Q3.4663 100.574 3.28441 100.41Q3.10252 100.245 2.92893 100.071Q2.75535 99.8975 2.59049 99.7156Q2.42563 99.5337 2.2699 99.3439Q2.11416 99.1542 1.96792 98.957Q1.82169 98.7598 1.6853 98.5557Q1.54892 98.3516 1.42271 98.141Q1.29651 97.9305 1.18079 97.714Q1.06507 97.4975 0.960107 97.2755Q0.855148 97.0536 0.761205 96.8268Q0.667261 96.6 0.584559 96.3689Q0.501857 96.1377 0.430597 95.9028Q0.359336 95.6679 0.299687 95.4298Q0.240039 95.1917 0.192147 94.9509Q0.144255 94.7101 0.108235 94.4673Q0.0722146 94.2245 0.0481527 93.9802Q0.0240909 93.7359 0.0120454 93.4907Q0 93.2455 0 93Z"/>
	<text fill="#00008B" font-size="16" font-family="CaskaydiaCove Nerd Font" x="5, 14.375, 23.75, 33.125, " y="88, ">
			q[0]
	</text>
	<path fill="none" stroke="#8A2BE2" stroke-width="3" stroke-miterlimit="4" d="M0 249L50 249"/>
	<path fill="#DBC7AF" d="M0 259L0 239Q0 238.755 0.0120454 238.509Q0.0240909 238.264 0.0481527 238.02Q0.0722146 237.776 0.108235 237.533Q0.144255 237.29 0.192147 237.049Q0.240039 236.808 0.299687 236.57Q0.359336 236.332 0.430597 236.097Q0.501857 235.862 0.584559 235.631Q0.667261 235.4 0.761205 235.173Q0.855148 234.946 0.960107 234.724Q1.06507 234.502 1.18079 234.286Q1.29651 234.069 1.42271 233.859Q1.54892 233.648 1.6853 233.444Q1.82169 233.24 1.96792 233.043Q2.11416 232.846 2.2699 232.656Q2.42563 232.466 2.59049 232.284Q2.75535 232.102 2.92893 231.929Q3.10252 231.755 3.28441 231.59Q3.4663 231.426 3.65607 231.27Q3.84583 231.114 4.04301 230.968Q4.24018 230.822 4.4443 230.685Q4.64841 230.549 4.85897 230.423Q5.06953 230.296 5.28603 230.181Q5.50253 230.065 5.72445 229.96Q5.94636 229.855 6.17316 229.761Q6.39996 229.667 6.6311 229.585Q6.86224 229.502 7.09715 229.431Q7.33207 229.359 7.5702 229.3Q7.80833 229.24 8.0491 229.192Q8.28987 229.144 8.53269 229.108Q8.77552 229.072 9.01983 229.048Q9.26413 229.024 9.50932 229.012Q9.75451 229 10 229L40 229Q40.2455 229 40.4907 229.012Q40.7359 229.024 40.9802 229.048Q41.2245 229.072 41.4673 229.108Q41.7101 229.144 41.9509 229.192Q42.1917 229.24 42.4298 229.3Q42.6679 229.359 42.9028 229.431Q43.1378 229.502 43.3689 229.585Q43.6 229.667 43.8268 229.761Q44.0536 229.855 44.2755 229.96Q44.4975 230.065 44.714 230.181Q44.9305 230.296 45.141 230.423Q45.3516 230.549 45.5557 230.685Q45.7598 230.822 45.957 230.968Q46.1542 231.114 46.3439 231.27Q46.5337 231.426 46.7156 231.59Q46.8975 231.755 47.0711 231.929Q47.2446 232.102 47.4095 232.284Q47.5744 232.466 47.7301 232.656Q47.8858 232.846 48.0321 233.043Q48.1783 233.24 48.3147 233.444Q48.4511 233.648 48.5773 233.859Q48.7035 234.069 48.8192 234.286Q48.9349 234.502 49.0399 234.724Q49.1448 234.946 49.2388 235.173Q49.3327 235.4 49.4154 235.631Q49.4981 235.862 49.5694 236.097Q49.6407 236.332 49.7003 236.57Q49.76 236.808 49.8078 237.049Q49.8557 237.29 49.8918 237.533Q49.9278 237.776 49.9518 238.02Q49.9759 238.264 49.988 238.509Q50 238.755 50 239L50 259Q50 259.245 49.988 259.491Q49.9759 259.736 49.9518 259.98Q49.9278 260.224 49.8918 260.467Q49.8557 260.71 49.8078 260.951Q49.76 261.192 49.7003 261.43Q49.6407 261.668 49.5694 261.903Q49.4981 262.138 49.4154 262.369Q49.3327 262.6 49.2388 262.827Q49.1448 263.054 49.0399 263.276Q48.9349 263.497 48.8192 263.714Q48.7035 263.93 48.5773 264.141Q48.4511 264.352 48.3147 264.556Q48.1783 264.76 48.0321 264.957Q47.8858 265.154 47.7301 265.344Q47.5744 265.534 47.4095 265.716Q47.2446 265.897 47.0711 266.071Q46.8975 266.245 46.7156 266.409Q46.5337 266.574 46.3439 266.73Q46.1542 266.886 45.957 267.032Q45.7598 267.178 45.5557 267.315Q45.3516 267.451 45.141 267.577Q44.9305 267.703 44.714 267.819Q44.4975 267.935 44.2755 268.04Q44.0536 268.145 43.8268 268.239Q43.6 268.333 43.3689 268.415Q43.1378 268.498 42.9028 268.569Q42.6679 268.641 42.4298 268.7Q42.1917 268.76 41.9509 268.808Q41.7101 268.856 41.4673 268.892Q41.2245 268.928 40.9802 268.952Q40.7359 268.976 40.4907 268.988Q40.2455 269 40 269L10 269Q9.75451 269 9.50932 268.988Q9.26413 268.976 9.01983 268.952Q8.77552 268.928 8.53269 268.892Q8.28987 268.856 8.0491 268.808Q7.80833 268.76 7.5702 268.7Q7.33207 268.641 7.09715 268.569Q6.86224 268.498 6.6311 268.415Q6.39996 268.333 6.17316 268.239Q5.94636 268.145 5.72445 268.04Q5.50253 267.935 5.28603 267.819Q5.06953 267.703 4.85897 267.577Q4.64841 267.451 4.4443 267.315Q4.24018 267.178 4.04301 267.032Q3.84583 266.886 3.65607 266.73Q3.4663 266.574 3.28441 266.409Q3.10252 266.245 2.92893 266.071Q2.75535 265.897 2.59049 265.716Q2.42563 265.534 2.2699 265.344Q2.11416 265.154 1.96792 264.957Q1.82169 264.76 1.6853 264.556Q1.54892 264.352 1.42271 264.141Q1.29651 263.93 1.18079 263.714Q1.06507 263.497 0.960107 263.276Q0.855148 263.054 0.761205 262.827Q0.667261 262.6 0.584559 262.369Q0.501857 262.138 0.430597 261.903Q0.359336 261.668 0.299687 261.43Q0.240039 261.192 0.192147 260.951Q0.144255 260.71 0.108235 260.467Q0.0722146 260.224 0.0481527 259.98Q0.0240909 259.736 0.0120454 259.491Q0 259.245 0 259Z"/>
	<text fill="#00008B" font-size="16" font-family="CaskaydiaCove Nerd Font" x="5, 14.375, 23.75, 33.125, " y="254, ">
			q[1]
	</text>
	<path fill="none" stroke="#8A2BE2" stroke-width="3" stroke-miterlimit="4" d="M0 415L50 415"/>
	<path fill="#DBC7AF" d="M0 425L0 405Q0 404.755 0.0120454 404.509Q0.0240909 404.264 0.0481527 404.02Q0.0722146 403.775 0.108235 403.533Q0.144255 403.29 0.192147 403.049Q0.240039 402.808 0.299687 402.57Q0.359336 402.332 0.430597 402.097Q0.501857 401.862 0.584559 401.631Q0.667261 401.4 0.761205 401.173Q0.855148 400.946 0.960107 400.724Q1.06507 400.503 1.18079 400.286Q1.29651 400.069 1.42271 399.859Q1.54892 399.648 1.6853 399.444Q1.82169 399.24 1.96792 399.043Q2.11416 398.846 2.2699 398.656Q2.42563 398.466 2.59049 398.284Q2.75535 398.102 2.92893 397.929Q3.10252 397.755 3.28441 397.59Q3.4663 397.426 3.65607 397.27Q3.84583 397.114 4.04301 396.968Q4.24018 396.822 4.4443 396.685Q4.64841 396.549 4.85897 396.423Q5.06953 396.297 5.28603 396.181Q5.50253 396.065 5.72445 395.96Q5.94636 395.855 6.17316 395.761Q6.39996 395.667 6.6311 395.585Q6.86224 395.502 7.09715 395.431Q7.33207 395.359 7.5702 395.3Q7.80833 395.24 8.0491 395.192Q8.28987 395.144 8.53269 395.108Q8.77552 395.072 9.01983 395.048Q9.26413 395.024 9.50932 395.012Q9.75451 395 10 395L40 395Q40.2455 395 40.4907 395.012Q40.7359 395.024 40.9802 395.048Q41.2245 395.072 41.4673 395.108Q41.7101 395.144 41.9509 395.192Q42.1917 395.24 42.4298 395.3Q42.6679 395.359 42.9028 395.431Q43.1378 395.502 43.3689 395.585Q43.6 395.667 43.8268 395.761Q44.0536 395.855 44.2755 395.96Q44.4975 396.065 44.714 396.181Q44.9305 396.297 45.141 396.423Q45.3516 396.549 45.5557 396.685Q45.7598 396.822 45.957 396.968Q46.1542 397.114 46.3439 397.27Q46.5337 397.426 46.7156 397.59Q46.8975 397.755 47.0711 397.929Q47.2446 398.102 47.4095 398.284Q47.5744 398.466 47.7301 398.656Q47.8858 398.846 48.0321 399.043Q48.1783 399.24 48.3147 399.444Q48.4511 399.648 48.5773 399.859Q48.7035 400.069 48.8192 400.286Q48.9349 400.503 49.0399 400.724Q49.1448 400.946 49.2388 401.173Q49.3327 401.4 49.4154 401.631Q49.4981 401.862 49.5694 402.097Q49.6407 402.332 49.7003 402.57Q49.76 402.808 49.8078 403.049Q49.8557 403.29 49.8918 403.533Q49.9278 403.775 49.9518 404.02Q49.9759 404.264 49.988 404.509Q50 404.755 50 405L50 425Q50 425.245 49.988 425.491Q49.9759 425.736 49.9518 425.98Q49.9278 426.224 49.8918 426.467Q49.8557 426.71 49.8078 426.951Q49.76 427.192 49.7003 427.43Q49.6407 427.668 49.5694 427.903Q49.4981 428.138 49.4154 428.369Q49.3327 428.6 49.2388 428.827Q49.1448 429.054 49.0399 429.275Q48.9349 429.497 48.8192 429.714Q48.7035 429.93 48.5773 430.141Q48.4511 430.352 48.3147 430.556Q48.1783 430.76 48.0321 430.957Q47.8858 431.154 47.7301 431.344Q47.5744 431.534 47.4095 431.716Q47.2446 431.897 47.0711 432.071Q46.8975 432.245 46.7156 432.409Q46.5337 432.574 46.3439 432.73Q46.1542 432.886 45.957 433.032Q45.7598 433.178 45.5557 433.315Q45.3516 433.451 45.141 433.577Q44.9305 433.703 44.714 433.819Q44.4975 433.935 44.2755 434.04Q44.0536 434.145 43.8268 434.239Q43.6 434.333 43.3689 434.415Q43.1378 434.498 42.9028 434.569Q42.6679 434.641 42.4298 434.7Q42.1917 434.76 41.9509 434.808Q41.7101 434.856 41.4673 434.892Q41.2245 434.928 40.9802 434.952Q40.7359 434.976 40.4907 434.988Q40.2455 435 40 435L10 435Q9.75451 435 9.50932 434.988Q9.26413 434.976 9.01983 434.952Q8.77552 434.928 8.53269 434.892Q8.28987 434.856 8.0491 434.808Q7.80833 434.76 7.5702 434.7Q7.33207 434.641 7.09715 434.569Q6.86224 434.498 6.6311 434.415Q6.39996 434.333 6.17316 434.239Q5.94636 434.145 5.72445 434.04Q5.50253 433.935 5.28603 433.819Q5.06953 433.703 4.85897 433.577Q4.64841 433.451 4.4443 433.315Q4.24018 433.178 4.04301 433.032Q3.84583 432.886 3.65607 432.73Q3.4663 432.574 3.28441 432.409Q3.10252 432.245 2.92893 432.071Q2.75535 431.897 2.59049 431.716Q2.42563 431.534 2.2699 431.344Q2.11416 431.154 1.96792 430.957Q1.82169 430.76 1.6853 430.556Q1.54892 430.352 1.42271 430.141Q1.29651 429.93 1.18079 429.714Q1.06507 429.497 0.960107 429.275Q0.855148 429.054 0.761205 428.827Q0.667261 428.6 0.584559 428.369Q0.501857 428.138 0.430597 427.903Q0.359336 427.668 0.299687 427.43Q0.240039 427.192 0.192147 426.951Q0.144255 426.71 0.108235 426.467Q0.0722146 426.224 0.0481527 425.98Q0.0240909 425.736 0.0120454 425.491Q0 425.245 0 425Z"/>
	<text fill="#00008B" font-size="16" font-family="CaskaydiaCove Nerd Font" x="5, " y="420, ">
			c
	</text>
	<path fill="#DBC7AF" fill-opacity="0.27450982" d="M80 490L80 10Q80 9.75451 80.012 9.50932Q80.0241 9.26413 80.0482 9.01983Q80.0722 8.77552 80.1082 8.53269Q80.1442 8.28987 80.1921 8.0491Q80.24 7.80833 80.2997 7.5702Q80.3593 7.33207 80.4306 7.09715Q80.5018 6.86224 80.5845 6.6311Q80.6673 6.39996 80.7612 6.17316Q80.8551 5.94636 80.9601 5.72445Q81.0651 5.50253 81.1808 5.28603Q81.2965 5.06953 81.4227 4.85897Q81.5489 4.64841 81.6853 4.4443Q81.8217 4.24018 81.9679 4.04301Q82.1142 3.84583 82.2699 3.65607Q82.4256 3.4663 82.5905 3.28441Q82.7553 3.10252 82.9289 2.92893Q83.1025 2.75535 83.2844 2.59049Q83.4663 2.42563 83.6561 2.2699Q83.8458 2.11416 84.043 1.96792Q84.2402 1.82169 84.4443 1.6853Q84.6484 1.54892 84.859 1.42271Q85.0695 1.29651 85.286 1.18079Q85.5025 1.06507 85.7244 0.960107Q85.9463 0.855148 86.1731 0.761205Q86.3999 0.667261 86.6311 0.584559Q86.8622 0.501857 87.0972 0.430597Q87.3321 0.359336 87.5702 0.299687Q87.8083 0.240039 88.0491 0.192147Q88.2898 0.144255 88.5327 0.108235Q88.7755 0.0722146 89.0198 0.0481527Q89.2641 0.0240909 89.5093 0.0120454Q89.7545 0 90 0L243 0Q243.245 0 243.491 0.0120454Q243.736 0.0240909 243.98 0.0481527Q244.224 0.0722146 244.467 0.108235Q244.71 0.144255 244.951 0.192147Q245.192 0.240039 245.43 0.299687Q245.668 0.359336 245.903 0.430597Q246.138 0.501857 246.369 0.584559Q246.6 0.667261 246.827 0.761205Q247.054 0.855148 247.276 0.960107Q247.497 1.06507 247.714 1.18079Q247.93 1.29651 248.141 1.42271Q248.352 1.54892 248.556 1.6853Q248.76 1.82169 248.957 1.96792Q249.154 2.11416 249.344 2.2699Q249.534 2.42563 249.716 2.59049Q249.897 2.75535 250.071 2.92893Q250.245 3.10252 250.41 3.28441Q250.574 3.4663 250.73 3.65607Q250.886 3.84583 251.032 4.04301Q251.178 4.24018 251.315 4.4443Q251.451 4.64841 251.577 4.85897Q251.703 5.06953 251.819 5.28603Q251.935 5.50253 252.04 5.72445Q252.145 5.94636 252.239 6.17316Q252.333 6.39996 252.415 6.6311Q252.498 6.86224 252.569 7.09715Q252.641 7.33207 252.7 7.5702Q252.76 7.80833 252.808 8.0491Q252.856 8.28987 252.892 8.53269Q252.928 8.77552 252.952 9.01983Q252.976 9.26413 252.988 9.50932Q253 9.75451 253 10L253 490Q253 490.246 252.988 490.491Q252.976 490.736 252.952 490.98Q252.928 491.224 252.892 491.467Q252.856 491.71 252.808 491.951Q252.76 492.192 252.7 492.43Q252.641 492.668 252.569 492.903Q252.498 493.138 252.415 493.369Q252.333 493.6 252.239 493.827Q252.145 494.054 252.04 494.275Q251.935 494.497 251.819 494.714Q251.703 494.93 251.577 495.141Q251.451 495.352 251.315 495.556Q251.178 495.76 251.032 495.957Q250.886 496.154 250.73 496.344Q250.574 496.534 250.409 496.716Q250.245 496.897 250.071 497.071Q249.897 497.245 249.716 497.409Q249.534 497.574 249.344 497.73Q249.154 497.886 248.957 498.032Q248.76 498.178 248.556 498.315Q248.352 498.451 248.141 498.577Q247.93 498.703 247.714 498.819Q247.497 498.935 247.276 499.04Q247.054 499.145 246.827 499.239Q246.6 499.333 246.369 499.415Q246.138 499.498 245.903 499.569Q245.668 499.641 245.43 499.7Q245.192 499.76 244.951 499.808Q244.71 499.856 244.467 499.892Q244.224 499.928 243.98 499.952Q243.736 499.976 243.491 499.988Q243.245 500 243 500L90 500Q89.7545 500 89.5093 499.988Q89.2641 499.976 89.0198 499.952Q88.7755 499.928 88.5327 499.892Q88.2898 499.856 88.0491 499.808Q87.8083 499.76 87.5702 499.7Q87.3321 499.641 87.0972 499.569Q86.8622 499.498 86.6311 499.415Q86.3999 499.333 86.1731 499.239Q85.9463 499.145 85.7244 499.04Q85.5025 498.935 85.286 498.819Q85.0695 498.703 84.859 498.577Q84.6484 498.451 84.4443 498.315Q84.2402 498.178 84.043 498.032Q83.8458 497.886 83.6561 497.73Q83.4663 497.574 83.2844 497.409Q83.1025 497.245 82.9289 497.071Q82.7553 496.897 82.5905 496.716Q82.4256 496.534 82.2699 496.344Q82.1142 496.154 81.9679 495.957Q81.8217 495.76 81.6853 495.556Q81.5489 495.352 81.4227 495.141Q81.2965 494.93 81.1808 494.714Q81.0651 494.497 80.9601 494.275Q80.8551 494.054 80.7612 493.827Q80.6673 493.6 80.5845 493.369Q80.5018 493.138 80.4306 492.903Q80.3593 492.668 80.2997 492.43Q80.24 492.192 80.1921 491.951Q80.1442 491.71 80.1082 491.467Q80.0722 491.224 80.0482 490.98Q80.0241 490.736 80.012 490.491Q80 490.246 80 490Z"/>
	<path fill="none" stroke="#8A2BE2" stroke-width="3" stroke-linecap="round" stroke-miterlimit="4" d="M50 83L283 83"/>
	<path fill="none" stroke="#8A2BE2" stroke-width="3" stroke-linecap="round" stroke-miterlimit="4" d="M50 249L283 249"/>
	<path fill="none" stroke="#8A2BE2" stroke-width="3" stroke-linecap="round" stroke-miterlimit="4" d="M50 415L283 415"/>
	<path fill="#8D0B3D" d="M90 146L90 20Q90 19.7545 90.012 19.5093Q90.0241 19.2641 90.0482 19.0198Q90.0722 18.7755 90.1082 18.5327Q90.1443 18.2899 90.1921 18.0491Q90.24 17.8083 90.2997 17.5702Q90.3593 17.3321 90.4306 17.0972Q90.5019 16.8622 90.5845 16.6311Q90.6673 16.4 90.7612 16.1732Q90.8551 15.9464 90.9601 15.7244Q91.0651 15.5025 91.1808 15.286Q91.2965 15.0695 91.4227 14.859Q91.5489 14.6484 91.6853 14.4443Q91.8217 14.2402 91.9679 14.043Q92.1142 13.8458 92.2699 13.6561Q92.4256 13.4663 92.5905 13.2844Q92.7553 13.1025 92.9289 12.9289Q93.1025 12.7553 93.2844 12.5905Q93.4663 12.4256 93.6561 12.2699Q93.8458 12.1142 94.043 11.9679Q94.2402 11.8217 94.4443 11.6853Q94.6484 11.5489 94.859 11.4227Q95.0695 11.2965 95.286 11.1808Q95.5025 11.0651 95.7244 10.9601Q95.9464 10.8551 96.1732 10.7612Q96.4 10.6673 96.6311 10.5846Q96.8622 10.5019 97.0972 10.4306Q97.3321 10.3593 97.5702 10.2997Q97.8083 10.24 98.0491 10.1921Q98.2899 10.1443 98.5327 10.1082Q98.7755 10.0722 99.0198 10.0482Q99.2641 10.0241 99.5093 10.012Q99.7545 10 100 10L233 10Q233.245 10 233.491 10.012Q233.736 10.0241 233.98 10.0482Q234.224 10.0722 234.467 10.1082Q234.71 10.1443 234.951 10.1921Q235.192 10.24 235.43 10.2997Q235.668 10.3593 235.903 10.4306Q236.138 10.5019 236.369 10.5846Q236.6 10.6673 236.827 10.7612Q237.054 10.8551 237.276 10.9601Q237.497 11.0651 237.714 11.1808Q237.93 11.2965 238.141 11.4227Q238.352 11.5489 238.556 11.6853Q238.76 11.8217 238.957 11.9679Q239.154 12.1142 239.344 12.2699Q239.534 12.4256 239.716 12.5905Q239.897 12.7553 240.071 12.9289Q240.245 13.1025 240.41 13.2844Q240.574 13.4663 240.73 13.6561Q240.886 13.8458 241.032 14.043Q241.178 14.2402 241.315 14.4443Q241.451 14.6484 241.577 14.859Q241.703 15.0695 241.819 15.286Q241.935 15.5025 242.04 15.7244Q242.145 15.9464 242.239 16.1732Q242.333 16.4 242.415 16.6311Q242.498 16.8622 242.569 17.0972Q242.641 17.3321 242.7 17.5702Q242.76 17.8083 242.808 18.0491Q242.856 18.2899 242.892 18.5327Q242.928 18.7755 242.952 19.0198Q242.976 19.2641 242.988 19.5093Q243 19.7545 243 20L243 146Q243 146.245 242.988 146.491Q242.976 146.736 242.952 146.98Q242.928 147.224 242.892 147.467Q242.856 147.71 242.808 147.951Q242.76 148.192 242.7 148.43Q242.641 148.668 242.569 148.903Q242.498 149.138 242.415 149.369Q242.333 149.6 242.239 149.827Q242.145 150.054 242.04 150.276Q241.935 150.497 241.819 150.714Q241.703 150.93 241.577 151.141Q241.451 151.352 241.315 151.556Q241.178 151.76 241.032 151.957Q240.886 152.154 240.73 152.344Q240.574 152.534 240.41 152.716Q240.245 152.897 240.071 153.071Q239.897 153.245 239.716 153.41Q239.534 153.574 239.344 153.73Q239.154 153.886 238.957 154.032Q238.76 154.178 238.556 154.315Q238.352 154.451 238.141 154.577Q237.93 154.703 237.714 154.819Q237.497 154.935 237.276 155.04Q237.054 155.145 236.827 155.239Q236.6 155.333 236.369 155.415Q236.138 155.498 235.903 155.569Q235.668 155.641 235.43 155.7Q235.192 155.76 234.951 155.808Q234.71 155.856 234.467 155.892Q234.224 155.928 233.98 155.952Q233.736 155.976 233.491 155.988Q233.245 156 233 156L100 156Q99.7545 156 99.5093 155.988Q99.2641 155.976 99.0198 155.952Q98.7755 155.928 98.5327 155.892Q98.2899 155.856 98.0491 155.808Q97.8083 155.76 97.5702 155.7Q97.3321 155.641 97.0972 155.569Q96.8622 155.498 96.6311 155.415Q96.4 155.333 96.1732 155.239Q95.9464 155.145 95.7244 155.04Q95.5025 154.935 95.286 154.819Q95.0695 154.703 94.859 154.577Q94.6484 154.451 94.4443 154.315Q94.2402 154.178 94.043 154.032Q93.8458 153.886 93.6561 153.73Q93.4663 153.574 93.2844 153.41Q93.1025 153.245 92.9289 153.071Q92.7553 152.897 92.5905 152.716Q92.4256 152.534 92.2699 152.344Q92.1142 152.154 91.9679 151.957Q91.8217 151.76 91.6853 151.556Q91.5489 151.352 91.4227 151.141Q91.2965 150.93 91.1808 150.714Q91.0651 150.497 90.9601 150.276Q90.8551 150.054 90.7612 149.827Q90.6673 149.6 90.5845 149.369Q90.5019 149.138 90.4306 148.903Q90.3593 148.668 90.2997 148.43Q90.24 148.192 90.1921 147.951Q90.1443 147.71 90.1082 147.467Q90.0722 147.224 90.0482 146.98Q90.0241 146.736 90.012 146.491Q90 146.245 90 146Z"/>
	<text fill="white" font-size="20" font-family="CaskaydiaCove Nerd Font" x="123, 134.71875, " y="88, ">
			RX
	</text>
	<path fill="#8D0B3D" d="M90 312L90 186Q90 185.755 90.012 185.509Q90.0241 185.264 90.0482 185.02Q90.0722 184.776 90.1082 184.533Q90.1443 184.29 90.1921 184.049Q90.24 183.808 90.2997 183.57Q90.3593 183.332 90.4306 183.097Q90.5019 182.862 90.5845 182.631Q90.6673 182.4 90.7612 182.173Q90.8551 181.946 90.9601 181.724Q91.0651 181.503 91.1808 181.286Q91.2965 181.07 91.4227 180.859Q91.5489 180.648 91.6853 180.444Q91.8217 180.24 91.9679 180.043Q92.1142 179.846 92.2699 179.656Q92.4256 179.466 92.5905 179.284Q92.7553 179.103 92.9289 178.929Q93.1025 178.755 93.2844 178.59Q93.4663 178.426 93.6561 178.27Q93.8458 178.114 94.043 177.968Q94.2402 177.822 94.4443 177.685Q94.6484 177.549 94.859 177.423Q95.0695 177.297 95.286 177.181Q95.5025 177.065 95.7244 176.96Q95.9464 176.855 96.1732 176.761Q96.4 176.667 96.6311 176.585Q96.8622 176.502 97.0972 176.431Q97.3321 176.359 97.5702 176.3Q97.8083 176.24 98.0491 176.192Q98.2899 176.144 98.5327 176.108Q98.7755 176.072 99.0198 176.048Q99.2641 176.024 99.5093 176.012Q99.7545 176 100 176L233 176Q233.245 176 233.491 176.012Q233.736 176.024 233.98 176.048Q234.224 176.072 234.467 176.108Q234.71 176.144 234.951 176.192Q235.192 176.24 235.43 176.3Q235.668 176.359 235.903 176.431Q236.138 176.502 236.369 176.585Q236.6 176.667 236.827 176.761Q237.054 176.855 237.276 176.96Q237.497 177.065 237.714 177.181Q237.93 177.297 238.141 177.423Q238.352 177.549 238.556 177.685Q238.76 177.822 238.957 177.968Q239.154 178.114 239.344 178.27Q239.534 178.426 239.716 178.59Q239.897 178.755 240.071 178.929Q240.245 179.103 240.41 179.284Q240.574 179.466 240.73 179.656Q240.886 179.846 241.032 180.043Q241.178 180.24 241.315 180.444Q241.451 180.648 241.577 180.859Q241.703 181.07 241.819 181.286Q241.935 181.503 242.04 181.724Q242.145 181.946 242.239 182.173Q242.333 182.4 242.415 182.631Q242.498 182.862 242.569 183.097Q242.641 183.332 242.7 183.57Q242.76 183.808 242.808 184.049Q242.856 184.29 242.892 184.533Q242.928 184.776 242.952 185.02Q242.976 185.264 242.988 185.509Q243 185.755 243 186L243 312Q243 312.245 242.988 312.491Q242.976 312.736 242.952 312.98Q242.928 313.224 242.892 313.467Q242.856 313.71 242.808 313.951Q242.76 314.192 242.7 314.43Q242.641 314.668 242.569 314.903Q242.498 315.138 242.415 315.369Q242.333 315.6 242.239 315.827Q242.145 316.054 242.04 316.275Q241.935 316.497 241.819 316.714Q241.703 316.93 241.577 317.141Q241.451 317.352 241.315 317.556Q241.178 317.76 241.032 317.957Q240.886 318.154 240.73 318.344Q240.574 318.534 240.41 318.716Q240.245 318.897 240.071 319.071Q239.897 319.245 239.716 319.409Q239.534 319.574 239.344 319.73Q239.154 319.886 238.957 320.032Q238.76 320.178 238.556 320.315Q238.352 320.451 238.141 320.577Q237.93 320.703 237.714 320.819Q237.497 320.935 237.276 321.04Q237.054 321.145 236.827 321.239Q236.6 321.333 236.369 321.415Q236.138 321.498 235.903 321.569Q235.668 321.641 235.43 321.7Q235.192 321.76 234.951 321.808Q234.71 321.856 234.467 321.892Q234.224 321.928 233.98 321.952Q233.736 321.976 233.491 321.988Q233.245 322 233 322L100 322Q99.7545 322 99.5093 321.988Q99.2641 321.976 99.0198 321.952Q98.7755 321.928 98.5327 321.892Q98.2899 321.856 98.0491 321.808Q97.8083 321.76 97.5702 321.7Q97.3321 321.641 97.0972 321.569Q96.8622 321.498 96.6311 321.415Q96.4 321.333 96.1732 321.239Q95.9464 321.145 95.7244 321.04Q95.5025 320.935 95.286 320.819Q95.0695 320.703 94.859 320.577Q94.6484 320.451 94.4443 320.315Q94.2402 320.178 94.043 320.032Q93.8458 319.886 93.6561 319.73Q93.4663 319.574 93.2844 319.409Q93.1025 319.245 92.9289 319.071Q92.7553 318.897 92.5905 318.716Q92.4256 318.534 92.2699 318.344Q92.1142 318.154 91.9679 317.957Q91.8217 317.76 91.6853 317.556Q91.5489 317.352 91.4227 317.141Q91.2965 316.93 91.1808 316.714Q91.0651 316.497 90.9601 316.275Q90.8551 316.054 90.7612 315.827Q90.6673 315.6 90.5845 315.369Q90.5019 315.138 90.4306 314.903Q90.3593 314.668 90.2997 314.43Q90.24 314.192 90.1921 313.951Q90.1443 313.71 90.1082 313.467Q90.0722 313.224 90.0482 312.98Q90.0241 312.736 90.012 312.491Q90 312.245 90 312Z"/>
	<text fill="white" font-size="20" font-family="CaskaydiaCove Nerd Font" x="123, " y="254, ">
			H
	</text>
	<path fill="#DBC7AF" fill-opacity="0.27450982" d="M283 490L283 10Q283 9.75451 283.012 9.50932Q283.024 9.26413 283.048 9.01983Q283.072 8.77552 283.108 8.53269Q283.144 8.28987 283.192 8.0491Q283.24 7.80833 283.3 7.5702Q283.359 7.33207 283.431 7.09715Q283.502 6.86224 283.585 6.6311Q283.667 6.39996 283.761 6.17316Q283.855 5.94636 283.96 5.72445Q284.065 5.50253 284.181 5.28603Q284.296 5.06953 284.423 4.85897Q284.549 4.64841 284.685 4.4443Q284.822 4.24018 284.968 4.04301Q285.114 3.84583 285.27 3.65607Q285.426 3.4663 285.59 3.28441Q285.755 3.10252 285.929 2.92893Q286.102 2.75535 286.284 2.59049Q286.466 2.42563 286.656 2.2699Q286.846 2.11416 287.043 1.96792Q287.24 1.82169 287.444 1.6853Q287.648 1.54892 287.859 1.42271Q288.069 1.29651 288.286 1.18079Q288.503 1.06507 288.724 0.960107Q288.946 0.855148 289.173 0.761205Q289.4 0.667261 289.631 0.584559Q289.862 0.501857 290.097 0.430597Q290.332 0.359336 290.57 0.299687Q290.808 0.240039 291.049 0.192147Q291.29 0.144255 291.533 0.108235Q291.776 0.0722146 292.02 0.0481527Q292.264 0.0240909 292.509 0.0120454Q292.754 0 293 0L446 0Q446.245 0 446.491 0.0120454Q446.736 0.0240909 446.98 0.0481527Q447.224 0.0722146 447.467 0.108235Q447.71 0.144255 447.951 0.192147Q448.192 0.240039 448.43 0.299687Q448.668 0.359336 448.903 0.430597Q449.138 0.501857 449.369 0.584559Q449.6 0.667261 449.827 0.761205Q450.054 0.855148 450.276 0.960107Q450.497 1.06507 450.714 1.18079Q450.93 1.29651 451.141 1.42271Q451.352 1.54892 451.556 1.6853Q451.76 1.82169 451.957 1.96792Q452.154 2.11416 452.344 2.2699Q452.534 2.42563 452.716 2.59049Q452.897 2.75535 453.071 2.92893Q453.245 3.10252 453.409 3.28441Q453.574 3.4663 453.73 3.65607Q453.886 3.84583 454.032 4.04301Q454.178 4.24018 454.315 4.4443Q454.451 4.64841 454.577 4.85897Q454.703 5.06953 454.819 5.28603Q454.935 5.50253 455.04 5.72445Q455.145 5.94636 455.239 6.17316Q455.333 6.39996 455.415 6.6311Q455.498 6.86224 455.569 7.09715Q455.641 7.33207 455.7 7.5702Q455.76 7.80833 455.808 8.0491Q455.856 8.28987 455.892 8.53269Q455.928 8.77552 455.952 9.01983Q455.976 9.26413 455.988 9.50932Q456 9.75451 456 10L456 490Q456 490.246 455.988 490.491Q455.976 490.736 455.952 490.98Q455.928 491.224 455.892 491.467Q455.856 491.71 455.808 491.951Q455.76 492.192 455.7 492.43Q455.641 492.668 455.569 492.903Q455.498 493.138 455.415 493.369Q455.333 493.6 455.239 493.827Q455.145 494.054 455.04 494.275Q454.935 494.497 454.819 494.714Q454.703 494.93 454.577 495.141Q454.451 495.352 454.315 495.556Q454.178 495.76 454.032 495.957Q453.886 496.154 453.73 496.344Q453.574 496.534 453.409 496.716Q453.245 496.897 453.071 497.071Q452.897 497.245 452.716 497.409Q452.534 497.574 452.344 497.73Q452.154 497.886 451.957 498.032Q451.76 498.178 451.556 498.315Q451.352 498.451 451.141 498.577Q450.93 498.703 450.714 498.819Q450.497 498.935 450.275 499.04Q450.054 499.145 449.827 499.239Q449.6 499.333 449.369 499.415Q449.138 499.498 448.903 499.569Q448.668 499.641 448.43 499.7Q448.192 499.76 447.951 499.808Q447.71 499.856 447.467 499.892Q447.224 499.928 446.98 499.952Q446.736 499.976 446.491 499.988Q446.245 500 446 500L293 500Q292.754 500 292.509 499.988Q292.264 499.976 292.02 499.952Q291.776 499.928 291.533 499.892Q291.29 499.856 291.049 499.808Q290.808 499.76 290.57 499.7Q290.332 499.641 290.097 499.569Q289.862 499.498 289.631 499.415Q289.4 499.333 289.173 499.239Q288.946 499.145 288.724 499.04Q288.503 498.935 288.286 498.819Q288.069 498.703 287.859 498.577Q287.648 498.451 287.444 498.315Q287.24 498.178 287.043 498.032Q286.846 497.886 286.656 497.73Q286.466 497.574 286.284 497.409Q286.102 497.245 285.929 497.071Q285.755 496.897 285.59 496.716Q285.426 496.534 285.27 496.344Q285.114 496.154 284.968 495.957Q284.822 495.76 284.685 495.556Q284.549 495.352 284.423 495.141Q284.296 494.93 284.181 494.714Q284.065 494.497 283.96 494.275Q283.855 494.054 283.761 493.827Q283.667 493.6 283.585 493.369Q283.502 493.138 283.431 492.903Q283.359 492.668 283.3 492.43Q283.24 492.192 283.192 491.951Q283.144 491.71 283.108 491.467Q283.072 491.224 283.048 490.98Q283.024 490.736 283.012 490.491Q283 490.246 283 490Z"/>
	<path fill="none" stroke="#8A2BE2" stroke-width="3" stroke-linecap="round" stroke-miterlimit="4" d="M253 83L486 83"/>
	<path fill="none" stroke="#8A2BE2" stroke-width="3" stroke-linecap="round" stroke-miterlimit="4" d="M253 249L486 249"/>
	<path fill="none" stroke="#8A2BE2" stroke-width="3" stroke-linecap="round" stroke-miterlimit="4" d="M253 415L486 415"/>
	<path fill="#8D0B3D" d="M293 146L293 20Q293 19.7545 293.012 19.5093Q293.024 19.2641 293.048 19.0198Q293.072 18.7755 293.108 18.5327Q293.144 18.2899 293.192 18.0491Q293.24 17.8083 293.3 17.5702Q293.359 17.3321 293.431 17.0972Q293.502 16.8622 293.585 16.6311Q293.667 16.4 293.761 16.1732Q293.855 15.9464 293.96 15.7244Q294.065 15.5025 294.181 15.286Q294.297 15.0695 294.423 14.859Q294.549 14.6484 294.685 14.4443Q294.822 14.2402 294.968 14.043Q295.114 13.8458 295.27 13.6561Q295.426 13.4663 295.59 13.2844Q295.755 13.1025 295.929 12.9289Q296.103 12.7553 296.284 12.5905Q296.466 12.4256 296.656 12.2699Q296.846 12.1142 297.043 11.9679Q297.24 11.8217 297.444 11.6853Q297.648 11.5489 297.859 11.4227Q298.069 11.2965 298.286 11.1808Q298.503 11.0651 298.724 10.9601Q298.946 10.8551 299.173 10.7612Q299.4 10.6673 299.631 10.5846Q299.862 10.5019 300.097 10.4306Q300.332 10.3593 300.57 10.2997Q300.808 10.24 301.049 10.1921Q301.29 10.1443 301.533 10.1082Q301.775 10.0722 302.02 10.0482Q302.264 10.0241 302.509 10.012Q302.755 10 303 10L436 10Q436.245 10 436.491 10.012Q436.736 10.0241 436.98 10.0482Q437.224 10.0722 437.467 10.1082Q437.71 10.1443 437.951 10.1921Q438.192 10.24 438.43 10.2997Q438.668 10.3593 438.903 10.4306Q439.138 10.5019 439.369 10.5846Q439.6 10.6673 439.827 10.7612Q440.054 10.8551 440.275 10.9601Q440.497 11.0651 440.714 11.1808Q440.93 11.2965 441.141 11.4227Q441.352 11.5489 441.556 11.6853Q441.76 11.8217 441.957 11.9679Q442.154 12.1142 442.344 12.2699Q442.534 12.4256 442.716 12.5905Q442.897 12.7553 443.071 12.9289Q443.245 13.1025 443.409 13.2844Q443.574 13.4663 443.73 13.6561Q443.886 13.8458 444.032 14.043Q444.178 14.2402 444.315 14.4443Q444.451 14.6484 444.577 14.859Q444.703 15.0695 444.819 15.286Q444.935 15.5025 445.04 15.7244Q445.145 15.9464 445.239 16.1732Q445.333 16.4 445.415 16.6311Q445.498 16.8622 445.569 17.0972Q445.641 17.3321 445.7 17.5702Q445.76 17.8083 445.808 18.0491Q445.856 18.2899 445.892 18.5327Q445.928 18.7755 445.952 19.0198Q445.976 19.2641 445.988 19.5093Q446 19.7545 446 20L446 146Q446 146.245 445.988 146.491Q445.976 146.736 445.952 146.98Q445.928 147.224 445.892 147.467Q445.856 147.71 445.808 147.951Q445.76 148.192 445.7 148.43Q445.641 148.668 445.569 148.903Q445.498 149.138 445.415 149.369Q445.333 149.6 445.239 149.827Q445.145 150.054 445.04 150.276Q444.935 150.497 444.819 150.714Q444.703 150.93 444.577 151.141Q444.451 151.352 444.315 151.556Q444.178 151.76 444.032 151.957Q443.886 152.154 443.73 152.344Q443.574 152.534 443.409 152.716Q443.245 152.897 443.071 153.071Q442.897 153.245 442.716 153.41Q442.534 153.574 442.344 153.73Q442.154 153.886 441.957 154.032Q441.76 154.178 441.556 154.315Q441.352 154.451 441.141 154.577Q440.93 154.703 440.714 154.819Q440.497 154.935 440.275 155.04Q440.054 155.145 439.827 155.239Q439.6 155.333 439.369 155.415Q439.138 155.498 438.903 155.569Q438.668 155.641 438.43 155.7Q438.192 155.76 437.951 155.808Q437.71 155.856 437.467 155.892Q437.224 155.928 436.98 155.952Q436.736 155.976 436.491 155.988Q436.245 156 436 156L303 156Q302.755 156 302.509 155.988Q302.264 155.976 302.02 155.952Q301.775 155.928 301.533 155.892Q301.29 155.856 301.049 155.808Q300.808 155.76 300.57 155.7Q300.332 155.641 300.097 155.569Q299.862 155.498 299.631 155.415Q299.4 155.333 299.173 155.239Q298.946 155.145 298.724 155.04Q298.503 154.935 298.286 154.819Q298.069 154.703 297.859 154.577Q297.648 154.451 297.444 154.315Q297.24 154.178 297.043 154.032Q296.846 153.886 296.656 153.73Q296.466 153.574 296.284 153.41Q296.103 153.245 295.929 153.071Q295.755 152.897 295.59 152.716Q295.426 152.534 295.27 152.344Q295.114 152.154 294.968 151.957Q294.822 151.76 294.685 151.556Q294.549 151.352 294.423 151.141Q294.297 150.93 294.181 150.714Q294.065 150.497 293.96 150.276Q293.855 150.054 293.761 149.827Q293.667 149.6 293.585 149.369Q293.502 149.138 293.431 148.903Q293.359 148.668 293.3 148.43Q293.24 148.192 293.192 147.951Q293.144 147.71 293.108 147.467Q293.072 147.224 293.048 146.98Q293.024 146.736 293.012 146.491Q293 146.245 293 146Z"/>
	<text fill="white" font-size="20" font-family="CaskaydiaCove Nerd Font" x="326, 337.71875, 349.4375, " y="88, ">
			TDG
	</text>
	<path fill="#8D0B3D" d="M293 478L293 186Q293 185.755 293.012 185.509Q293.024 185.264 293.048 185.02Q293.072 184.776 293.108 184.533Q293.144 184.29 293.192 184.049Q293.24 183.808 293.3 183.57Q293.359 183.332 293.431 183.097Q293.502 182.862 293.585 182.631Q293.667 182.4 293.761 182.173Q293.855 181.946 293.96 181.724Q294.065 181.503 294.181 181.286Q294.297 181.07 294.423 180.859Q294.549 180.648 294.685 180.444Q294.822 180.24 294.968 180.043Q295.114 179.846 295.27 179.656Q295.426 179.466 295.59 179.284Q295.755 179.103 295.929 178.929Q296.103 178.755 296.284 178.59Q296.466 178.426 296.656 178.27Q296.846 178.114 297.043 177.968Q297.24 177.822 297.444 177.685Q297.648 177.549 297.859 177.423Q298.069 177.297 298.286 177.181Q298.503 177.065 298.724 176.96Q298.946 176.855 299.173 176.761Q299.4 176.667 299.631 176.585Q299.862 176.502 300.097 176.431Q300.332 176.359 300.57 176.3Q300.808 176.24 301.049 176.192Q301.29 176.144 301.533 176.108Q301.775 176.072 302.02 176.048Q302.264 176.024 302.509 176.012Q302.755 176 303 176L436 176Q436.245 176 436.491 176.012Q436.736 176.024 436.98 176.048Q437.224 176.072 437.467 176.108Q437.71 176.144 437.951 176.192Q438.192 176.24 438.43 176.3Q438.668 176.359 438.903 176.431Q439.138 176.502 439.369 176.585Q439.6 176.667 439.827 176.761Q440.054 176.855 440.275 176.96Q440.497 177.065 440.714 177.181Q440.93 177.297 441.141 177.423Q441.352 177.549 441.556 177.685Q441.76 177.822 441.957 177.968Q442.154 178.114 442.344 178.27Q442.534 178.426 442.716 178.59Q442.897 178.755 443.071 178.929Q443.245 179.103 443.409 179.284Q443.574 179.466 443.73 179.656Q443.886 179.846 444.032 180.043Q444.178 180.24 444.315 180.444Q444.451 180.648 444.577 180.859Q444.703 181.07 444.819 181.286Q444.935 181.503 445.04 181.724Q445.145 181.946 445.239 182.173Q445.333 182.4 445.415 182.631Q445.498 182.862 445.569 183.097Q445.641 183.332 445.7 183.57Q445.76 183.808 445.808 184.049Q445.856 184.29 445.892 184.533Q445.928 184.776 445.952 185.02Q445.976 185.264 445.988 185.509Q446 185.755 446 186L446 478Q446 478.245 445.988 478.491Q445.976 478.736 445.952 478.98Q445.928 479.224 445.892 479.467Q445.856 479.71 445.808 479.951Q445.76 480.192 445.7 480.43Q445.641 480.668 445.569 480.903Q445.498 481.138 445.415 481.369Q445.333 481.6 445.239 481.827Q445.145 482.054 445.04 482.276Q444.935 482.497 444.819 482.714Q444.703 482.93 444.577 483.141Q444.451 483.352 444.315 483.556Q444.178 483.76 444.032 483.957Q443.886 484.154 443.73 484.344Q443.574 484.534 443.409 484.716Q443.245 484.897 443.071 485.071Q442.897 485.245 442.716 485.409Q442.534 485.574 442.344 485.73Q442.154 485.886 441.957 486.032Q441.76 486.178 441.556 486.315Q441.352 486.451 441.141 486.577Q440.93 486.703 440.714 486.819Q440.497 486.935 440.275 487.04Q440.054 487.145 439.827 487.239Q439.6 487.333 439.369 487.415Q439.138 487.498 438.903 487.569Q438.668 487.641 438.43 487.7Q438.192 487.76 437.951 487.808Q437.71 487.856 437.467 487.892Q437.224 487.928 436.98 487.952Q436.736 487.976 436.491 487.988Q436.245 488 436 488L303 488Q302.755 488 302.509 487.988Q302.264 487.976 302.02 487.952Q301.775 487.928 301.533 487.892Q301.29 487.856 301.049 487.808Q300.808 487.76 300.57 487.7Q300.332 487.641 300.097 487.569Q299.862 487.498 299.631 487.415Q299.4 487.333 299.173 487.239Q298.946 487.145 298.724 487.04Q298.503 486.935 298.286 486.819Q298.069 486.703 297.859 486.577Q297.648 486.451 297.444 486.315Q297.24 486.178 297.043 486.032Q296.846 485.886 296.656 485.73Q296.466 485.574 296.284 485.409Q296.103 485.245 295.929 485.071Q295.755 484.897 295.59 484.716Q295.426 484.534 295.27 484.344Q295.114 484.154 294.968 483.957Q294.822 483.76 294.685 483.556Q294.549 483.352 294.423 483.141Q294.297 482.93 294.181 482.714Q294.065 482.497 293.96 482.276Q293.855 482.054 293.761 481.827Q293.667 481.6 293.585 481.369Q293.502 481.138 293.431 480.903Q293.359 480.668 293.3 480.43Q293.24 480.192 293.192 479.951Q293.144 479.71 293.108 479.467Q293.072 479.224 293.048 478.98Q293.024 478.736 293.012 478.491Q293 478.245 293 478Z"/>
	<text fill="white" font-size="20" font-family="CaskaydiaCove Nerd Font" x="326, 337.71875, 349.4375, 361.15625, 372.875, 384.59375, 396.3125, " y="337, ">
			MEASURE
	</text>
	<path fill="#DBC7AF" fill-opacity="0.27450982" d="M486 490L486 10Q486 9.75451 486.012 9.50932Q486.024 9.26413 486.048 9.01983Q486.072 8.77552 486.108 8.53269Q486.144 8.28987 486.192 8.0491Q486.24 7.80833 486.3 7.5702Q486.359 7.33207 486.431 7.09715Q486.502 6.86224 486.585 6.6311Q486.667 6.39996 486.761 6.17316Q486.855 5.94636 486.96 5.72445Q487.065 5.50253 487.181 5.28603Q487.297 5.06953 487.423 4.85897Q487.549 4.64841 487.685 4.4443Q487.822 4.24018 487.968 4.04301Q488.114 3.84583 488.27 3.65607Q488.426 3.4663 488.59 3.28441Q488.755 3.10252 488.929 2.92893Q489.102 2.75535 489.284 2.59049Q489.466 2.42563 489.656 2.2699Q489.846 2.11416 490.043 1.96792Q490.24 1.82169 490.444 1.6853Q490.648 1.54892 490.859 1.42271Q491.069 1.29651 491.286 1.18079Q491.502 1.06507 491.724 0.960107Q491.946 0.855148 492.173 0.761205Q492.4 0.667261 492.631 0.584559Q492.862 0.501857 493.097 0.430597Q493.332 0.359336 493.57 0.299687Q493.808 0.240039 494.049 0.192147Q494.29 0.144255 494.533 0.108235Q494.776 0.0722146 495.02 0.0481527Q495.264 0.0240909 495.509 0.0120454Q495.754 0 496 0L649 0Q649.245 0 649.491 0.0120454Q649.736 0.0240909 649.98 0.0481527Q650.224 0.0722146 650.467 0.108235Q650.71 0.144255 650.951 0.192147Q651.192 0.240039 651.43 0.299687Q651.668 0.359336 651.903 0.430597Q652.138 0.501857 652.369 0.584559Q652.6 0.667261 652.827 0.761205Q653.054 0.855148 653.276 0.960107Q653.497 1.06507 653.714 1.18079Q653.93 1.29651 654.141 1.42271Q654.352 1.54892 654.556 1.6853Q654.76 1.82169 654.957 1.96792Q655.154 2.11416 655.344 2.2699Q655.534 2.42563 655.716 2.59049Q655.897 2.75535 656.071 2.92893Q656.245 3.10252 656.409 3.28441Q656.574 3.4663 656.73 3.65607Q656.886 3.84583 657.032 4.04301Q657.178 4.24018 657.315 4.4443Q657.451 4.64841 657.577 4.85897Q657.703 5.06953 657.819 5.28603Q657.935 5.50253 658.04 5.72445Q658.145 5.94636 658.239 6.17316Q658.333 6.39996 658.415 6.6311Q658.498 6.86224 658.569 7.09715Q658.641 7.33207 658.7 7.5702Q658.76 7.80833 658.808 8.0491Q658.856 8.28987 658.892 8.53269Q658.928 8.77552 658.952 9.01983Q658.976 9.26413 658.988 9.50932Q659 9.75451 659 10L659 490Q659 490.246 658.988 490.491Q658.976 490.736 658.952 490.98Q658.928 491.224 658.892 491.467Q658.856 491.71 658.808 491.951Q658.76 492.192 658.7 492.43Q658.641 492.668 658.569 492.903Q658.498 493.138 658.415 493.369Q658.333 493.6 658.239 493.827Q658.145 494.054 658.04 494.275Q657.935 494.497 657.819 494.714Q657.703 494.93 657.577 495.141Q657.451 495.352 657.315 495.556Q657.178 495.76 657.032 495.957Q656.886 496.154 656.73 496.344Q656.574 496.534 656.409 496.716Q656.245 496.897 656.071 497.071Q655.897 497.245 655.716 497.409Q655.534 497.574 655.344 497.73Q655.154 497.886 654.957 498.032Q654.76 498.178 654.556 498.315Q654.352 498.451 654.141 498.577Q653.93 498.703 653.714 498.819Q653.497 498.935 653.276 499.04Q653.054 499.145 652.827 499.239Q652.6 499.333 652.369 499.415Q652.138 499.498 651.903 499.569Q651.668 499.641 651.43 499.7Q651.192 499.76 650.951 499.808Q650.71 499.856 650.467 499.892Q650.224 499.928 649.98 499.952Q649.736 499.976 649.491 499.988Q649.245 500 649 500L496 500Q495.754 500 495.509 499.988Q495.264 499.976 495.02 499.952Q494.776 499.928 494.533 499.892Q494.29 499.856 494.049 499.808Q493.808 499.76 493.57 499.7Q493.332 499.641 493.097 499.569Q492.862 499.498 492.631 499.415Q492.4 499.333 492.173 499.239Q491.946 499.145 491.724 499.04Q491.502 498.935 491.286 498.819Q491.069 498.703 490.859 498.577Q490.648 498.451 490.444 498.315Q490.24 498.178 490.043 498.032Q489.846 497.886 489.656 497.73Q489.466 497.574 489.284 497.409Q489.102 497.245 488.929 497.071Q488.755 496.897 488.59 496.716Q488.426 496.534 488.27 496.344Q488.114 496.154 487.968 495.957Q487.822 495.76 487.685 495.556Q487.549 495.352 487.423 495.141Q487.296 494.93 487.181 494.714Q487.065 494.497 486.96 494.275Q486.855 494.054 486.761 493.827Q486.667 493.6 486.585 493.369Q486.502 493.138 486.431 492.903Q486.359 492.668 486.3 492.43Q486.24 492.192 486.192 491.951Q486.144 491.71 486.108 491.467Q486.072 491.224 486.048 490.98Q486.024 490.736 486.012 490.491Q486 490.246 486 490Z"/>
	<path fill="none" stroke="#8A2BE2" stroke-width="3" stroke-linecap="round" stroke-miterlimit="4" d="M456 83L689 83"/>
	<path fill="none" stroke="#8A2BE2" stroke-width="3" stroke-linecap="round" stroke-miterlimit="4" d="M456 249L689 249"/>
	<path fill="none" stroke="#8A2BE2" stroke-width="3" stroke-linecap="round" stroke-miterlimit="4" d="M456 415L689 415"/>
	<path fill="#8D0B3D" d="M496 146L496 20Q496 19.7545 496.012 19.5093Q496.024 19.2641 496.048 19.0198Q496.072 18.7755 496.108 18.5327Q496.144 18.2899 496.192 18.0491Q496.24 17.8083 496.3 17.5702Q496.359 17.3321 496.431 17.0972Q496.502 16.8622 496.585 16.6311Q496.667 16.4 496.761 16.1732Q496.855 15.9464 496.96 15.7244Q497.065 15.5025 497.181 15.286Q497.296 15.0695 497.423 14.859Q497.549 14.6484 497.685 14.4443Q497.822 14.2402 497.968 14.043Q498.114 13.8458 498.27 13.6561Q498.426 13.4663 498.59 13.2844Q498.755 13.1025 498.929 12.9289Q499.102 12.7553 499.284 12.5905Q499.466 12.4256 499.656 12.2699Q499.846 12.1142 500.043 11.9679Q500.24 11.8217 500.444 11.6853Q500.648 11.5489 500.859 11.4227Q501.069 11.2965 501.286 11.1808Q501.502 11.0651 501.724 10.9601Q501.946 10.8551 502.173 10.7612Q502.4 10.6673 502.631 10.5846Q502.862 10.5019 503.097 10.4306Q503.332 10.3593 503.57 10.2997Q503.808 10.24 504.049 10.1921Q504.29 10.1443 504.533 10.1082Q504.775 10.0722 505.02 10.0482Q505.264 10.0241 505.509 10.012Q505.754 10 506 10L639 10Q639.245 10 639.491 10.012Q639.736 10.0241 639.98 10.0482Q640.224 10.0722 640.467 10.1082Q640.71 10.1443 640.951 10.1921Q641.192 10.24 641.43 10.2997Q641.668 10.3593 641.903 10.4306Q642.138 10.5019 642.369 10.5846Q642.6 10.6673 642.827 10.7612Q643.054 10.8551 643.275 10.9601Q643.497 11.0651 643.714 11.1808Q643.93 11.2965 644.141 11.4227Q644.352 11.5489 644.556 11.6853Q644.76 11.8217 644.957 11.9679Q645.154 12.1142 645.344 12.2699Q645.534 12.4256 645.716 12.5905Q645.897 12.7553 646.071 12.9289Q646.245 13.1025 646.409 13.2844Q646.574 13.4663 646.73 13.6561Q646.886 13.8458 647.032 14.043Q647.178 14.2402 647.315 14.4443Q647.451 14.6484 647.577 14.859Q647.703 15.0695 647.819 15.286Q647.935 15.5025 648.04 15.7244Q648.145 15.9464 648.239 16.1732Q648.333 16.4 648.415 16.6311Q648.498 16.8622 648.569 17.0972Q648.641 17.3321 648.7 17.5702Q648.76 17.8083 648.808 18.0491Q648.856 18.2899 648.892 18.5327Q648.928 18.7755 648.952 19.0198Q648.976 19.2641 648.988 19.5093Q649 19.7545 649 20L649 146Q649 146.245 648.988 146.491Q648.976 146.736 648.952 146.98Q648.928 147.224 648.892 147.467Q648.856 147.71 648.808 147.951Q648.76 148.192 648.7 148.43Q648.641 148.668 648.569 148.903Q648.498 149.138 648.415 149.369Q648.333 149.6 648.239 149.827Q648.145 150.054 648.04 150.276Q647.935 150.497 647.819 150.714Q647.703 150.93 647.577 151.141Q647.451 151.352 647.315 151.556Q647.178 151.76 647.032 151.957Q646.886 152.154 646.73 152.344Q646.574 152.534 646.409 152.716Q646.245 152.897 646.071 153.071Q645.897 153.245 645.716 153.41Q645.534 153.574 645.344 153.73Q645.154 153.886 644.957 154.032Q644.76 154.178 644.556 154.315Q644.352 154.451 644.141 154.577Q643.93 154.703 643.714 154.819Q643.497 154.935 643.275 155.04Q643.054 155.145 642.827 155.239Q642.6 155.333 642.369 155.415Q642.138 155.498 641.903 155.569Q641.668 155.641 641.43 155.7Q641.192 155.76 640.951 155.808Q640.71 155.856 640.467 155.892Q640.224 155.928 639.98 155.952Q639.736 155.976 639.491 155.988Q639.245 156 639 156L506 156Q505.754 156 505.509 155.988Q505.264 155.976 505.02 155.952Q504.775 155.928 504.533 155.892Q504.29 155.856 504.049 155.808Q503.808 155.76 503.57 155.7Q503.332 155.641 503.097 155.569Q502.862 155.498 502.631 155.415Q502.4 155.333 502.173 155.239Q501.946 155.145 501.724 155.04Q501.503 154.935 501.286 154.819Q501.069 154.703 500.859 154.577Q500.648 154.451 500.444 154.315Q500.24 154.178 500.043 154.032Q499.846 153.886 499.656 153.73Q499.466 153.574 499.284 153.41Q499.102 153.245 498.929 153.071Q498.755 152.897 498.59 152.716Q498.426 152.534 498.27 152.344Q498.114 152.154 497.968 151.957Q497.822 151.76 497.685 151.556Q497.549 151.352 497.423 151.141Q497.296 150.93 497.181 150.714Q497.065 150.497 496.96 150.276Q496.855 150.054 496.761 149.827Q496.667 149.6 496.585 149.369Q496.502 149.138 496.431 148.903Q496.359 148.668 496.3 148.43Q496.24 148.192 496.192 147.951Q496.144 147.71 496.108 147.467Q496.072 147.224 496.048 146.98Q496.024 146.736 496.012 146.491Q496 146.245 496 146Z"/>
	<text fill="white" font-size="20" font-family="CaskaydiaCove Nerd Font" x="529, 540.71875, " y="88, ">
			RY
	</text>
</svg>
