<?xml version="1.0" encoding="utf-8" ?>
<svg xmlns="http://www.w3.org/2000/svg" xmlns:xlink="http://www.w3.org/1999/xlink" width="700" height="500">
	<path fill="none" stroke="#8A2BE2" stroke-width="3" stroke-miterlimit="4" d="M0 83L50 83"/>
	<path fill="#DBC7AF" d="M0 93L0 73Q0 72.7545 0.0120454 72.5093Q0.0240909 72.2641 0.0481527 72.0198Q0.0722146 71.7755 0.108235 71.5327Q0.144255 71.2899 0.192147 71.0491Q0.240039 70.8083 0.299687 70.5702Q0.359336 70.3321 0.430597 70.0971Q0.501857 69.8622 0.584559 69.6311Q0.667261 69.4 0.761205 69.1732Q0.855148 68.9464 0.960107 68.7244Q1.06507 68.5025 1.18079 68.286Q1.29651 68.0695 1.42271 67.859Q1.54892 67.6484 1.6853 67.4443Q1.82169 67.2402 1.96792 67.043Q2.11416 66.8458 2.2699 66.6561Q2.42563 66.4663 2.59049 66.2844Q2.75535 66.1025 2.92893 65.9289Q3.10252 65.7553 3.28441 65.5905Q3.4663 65.4256 3.65607 65.2699Q3.84583 65.1142 4.04301 64.9679Q4.24018 64.8217 4.4443 64.6853Q4.64841 64.5489 4.85897 64.4227Q5.06953 64.2965 5.28603 64.1808Q5.50253 64.0651 5.72445 63.9601Q5.94636 63.8551 6.17316 63.7612Q6.39996 63.6673 6.6311 63.5846Q6.86224 63.5019 7.09715 63.4306Q7.33207 63.3593 7.5702 63.2997Q7.80833 63.24 8.0491 63.1921Q8.28987 63.1443 8.53269 63.1082Q8.77552 63.0722 9.01983 63.0482Q9.26413 63.0241 9.50932 63.012Q9.75451 63 10 63L40 63Q40.2455 63 40.4907 63.012Q40.7359 63.0241 40.9802 63.0482Q41.2245 63.0722 41.4673 63.1082Q41.7101 63.1443 41.9509 63.1921Q42.1917 63.24 42.4298 63.2997Q42.6679 63.3593 42.9028 63.4306Q43.1378 63.5019 43.3689 63.5846Q43.6 63.6673 43.8268 63.7612Q44.0536 63.8551 44.2755 63.9601Q44.4975 64.0651 44.714 64.1808Q44.9305 64.2965 45.141 64.4227Q45.3516 64.5489 45.5557 64.6853Q45.7598 64.8217 45.957 64.9679Q46.1542 65.1142 46.3439 65.2699Q46.5337 65.4256 46.7156 65.5905Q46.8975 65.7553 47.0711 65.9289Q47.2446 66.1025 47.4095 66.2844Q47.5744 66.4663 47.7301 66.6561Q47.8858 66.8458 48.0321 67.043Q48.1783 67.2402 48.3147 67.4443Q48.4511 67.6484 48.5773 67.859Q48.7035 68.0695 48.8192 68.286Q48.9349 68.5025 49.0399 68.7244Q49.1448 68.9464 49.2388 69.1732Q49.3327 69.4 49.4154 69.6311Q49.4981 69.8622 49.5694 70.0972Q49.6407 70.3321 49.7003 70.5702Q49.76 70.8083 49.8078 71.0491Q49.8557 71.2899 49.8918 71.5327Q49.9278 71.7755 49.9518 72.0198Q49.9759 72.2641 49.988 72.5093Q50 72.7545 50 73L50 93Q50 93.2455 49.988 93.4907Q49.9759 93.7359 49.9518 93.9802Q49.9278 94.2245 49.8918 94.4673Q49.8557 94.7101 49.8078 94.9509Q49.76 95.1917 49.7003 95.4298Q49.6407 95.6679 49.5694 95.9028Q49.4981 96.1377 49.4154 96.3689Q49.3327 96.6 49.2388 96.8268Q49.1448 97.0536 49.0399 97.2755Q48.9349 97.4975 48.8192 97.714Q48.7035 97.9305 48.5773 98.141Q48.4511 98.3516 48.3147 98.5557Q48.1783 98.7598 48.0321 98.957Q47.8858 99.1542 47.7301 99.3439Q47.5744 99.5337 47.4095 99.7156Q47.2446 99.8975 47.0711 100.071Q46.8975 100.245 46.7156 100.41Q46.5337 100.574 46.3439 100.73Q46.1542 100.886 45.957 101.032Q45.7598 101.178 45.5557 101.315Q45.3516 101.451 45.141 101.577Q44.9305 101.703 44.714 101.819Q44.4975 101.935 44.2755 102.04Q44.0536 102.145 43.8268 102.239Q43.6 102.333 43.3689 102.415Q43.1378 102.498 42.9028 102.569Q42.6679 102.641 42.4298 102.7Q42.1917 102.76 41.9509 102.808Q41.7101 102.856 41.4673 102.892Q41.2245 102.928 40.9802 102.952Q40.7359 102.976 40.4907 102.988Q40.2455 103 40 103L10 103Q9.75451 103 9.50932 102.988Q9.26413 102.976 9.01983 102.952Q8.77552 102.928 8.53269 102.892Q8.28987 102.856 8.0491 102.808Q7.80833 102.76 7.5702 102.7Q7.33207 102.641 7.09715 102.569Q6.86224 102.498 6.6311 102.415Q6.39996 102.333 6.17316 102.239Q5.94636 102.145 5.72445 102.04Q5.50253 101.935 5.28603 101.819Q5.06953 101.703 4.85897 101.577Q4.64841 101.451 4.4443 101.315Q4.24018 101.178 4.04301 101.032Q3.84583 100.886 3.65607 100.73Q3.4663 100.574 3.28441 100.41Q3.10252 100.245 2.92893 100.071Q2.75535 99.8975 2.59049 99.7156Q2.42563 99.5337 2.2699 99.3439Q2.11416 99.1542 1.96792 98.957Q1.82169 98.7598 1.6853 98.5557Q1.54892 98.3516 1.42271 98.141Q1.29651 97.9305 1.18079 97.714Q1.06507 97.4975 0.960107 97.2755Q0.855148 97.0536 0.761205 96.8268Q0.667261 96.6 0.584559 96.3689Q0.501857 96.1377 0.430597 95.9028Q0.359336 95.6679 0.299687 95.4298Q0.240039 95.1917 0.192147 94.9509Q0.144255 94.7101 0.108235 94.4673Q0.0722146 94.2245 0.0481527 93.9802Q0.0240909 93.7359 0.0120454 93.4907Q0 93.2455 0 93Z"/>
	<text fill="#00008B" font-size="16" font-family="CaskaydiaCove Nerd Font" x="5, 14.375, 23.75, 33.125, " y="88, ">
			q[0]
	</text>
	<path fill="none" stroke="#8A2BE2" stroke-width="3" stroke-miterlimit="4" d="M0 249L50 249"/>
	<path fill="#DBC7AF" d="M0 259L0 239Q0 238.755 0.0120454 238.509Q0.0240909 238.264 0.0481527 238.02Q0.0722146 237.776 0.108235 237.533Q0.144255 237.29 0.192147 237.049Q0.240039 236.808 0.299687 236.57Q0.359336 236.332 0.430597 236.097Q0.501857 235.862 0.584559 235.631Q0.667261 235.4 0.761205 235.173Q0.855148 234.946 0.960107 234.724Q1.06507 234.502 1.18079 234.286Q1.29651 234.069 1.42271 233.859Q1.54892 233.648 1.6853 233.444Q1.82169 233.24 1.96792 233.043Q2.11416 232.846 2.2699 232.656Q2.42563 232.466 2.59049 232.284Q2.75535 232.102 2.92893 231.929Q3.10252 231.755 3.28441 231.59Q3.4663 231.426 3.65607 231.27Q3.84583 231.114 4.04301 230.968Q4.24018 230.822 4.4443 230.685Q4.64841 230.549 4.85897 230.423Q5.06953 230.296 5.28603 230.181Q5.50253 230.065 5.72445 229.96Q5.94636 229.855 6.17316 229.761Q6.39996 229.667 6.6311 229.585Q6.86224 229.502 7.09715 229.431Q7.33207 229.359 7.5702 229.3Q7.80833 229.24 8.0491 229.192Q8.28987 229.144 8.53269 229.108Q8.77552 229.072 9.01983 229.048Q9.26413 229.024 9.50932 229.012Q9.75451 229 10 229L40 229Q40.2455 229 40.4907 229.012Q40.7359 229.024 40.9802 229.048Q41.2245 229.072 41.4673 229.108Q41.7101 229.144 41.9509 229.192Q42.1917 229.24 42.4298 229.3Q42.6679 229.359 42.9028 229.431Q43.1378 229.502 43.3689 229.585Q43.6 229.667 43.8268 229.761Q44.0536 229.855 44.2755 229.96Q44.4975 230.065 44.714 230.181Q44.9305 230.296 45.141 230.423Q45.3516 230.549 45.5557 230.685Q45.7598 230.822 45.957 230.968Q46.1542 231.114 46.3439 231.27Q46.5337 231.426 46.7156 231.59Q46.8975 231.755 47.0711 231.929Q47.2446 232.102 47.4095 232.284Q47.5744 232.466 47.7301 232.656Q47.8858 232.846 48.0321 233.043Q48.1783 233.24 48.3147 233.444Q48.4511 233.648 48.5773 233.859Q48.7035 234.069 48.8192 234.286Q48.9349 234.502 49.0399 234.724Q49.1448 234.946 49.2388 235.173Q49.3327 235.4 49.4154 235.631Q49.4981 235.862 49.5694 236.097Q49.6407 236.332 49.7003 236.57Q49.76 236.808 49.8078 237.049Q49.8557 237.29 49.8918 237.533Q49.9278 237.776 49.9518 238.02Q49.9759 238.264 49.988 238.509Q50 238.755 50 239L50 259Q50 259.245 49.988 259.491Q49.9759 259.736 49.9518 259.98Q49.9278 260.224 49.8918 260.467Q49.8557 260.71 49.8078 260.951Q49.76 261.192 49.7003 261.43Q49.6407 261.668 49.5694 261.903Q49.4981 262.138 49.4154 262.369Q49.3327 262.6 49.2388 262.827Q49.1448 263.054 49.0399 263.276Q48.9349 263.497 48.8192 263.714Q48.7035 263.93 48.5773 264.141Q48.4511 264.352 48.3147 264.556Q48.1783 264.76 48.0321 264.957Q47.8858 265.154 47.7301 265.344Q47.5744 265.534 47.4095 265.716Q47.2446 265.897 47.0711 266.071Q46.8975 266.245 46.7156 266.409Q46.5337 266.574 46.3439 266.73Q46.1542 266.886 45.957 267.032Q45.7598 267.178 45.5557 267.315Q45.3516 267.451 45.141 267.577Q44.9305 267.703 44.714 267.819Q44.4975 267.935 44.2755 268.04Q44.0536 268.145 43.8268 268.239Q43.6 268.333 43.3689 268.415Q43.1378 268.498 42.9028 268.569Q42.6679 268.641 42.4298 268.7Q42.1917 268.76 41.9509 268.808Q41.7101 268.856 41.4673 268.892Q41.2245 268.928 40.9802 268.952Q40.7359 268.976 40.4907 268.988Q40.2455 269 40 269L10 269Q9.75451 269 9.50932 268.988Q9.26413 268.976 9.01983 268.952Q8.77552 268.928 8.53269 268.892Q8.28987 268.856 8.0491 268.808Q7.80833 268.76 7.5702 268.7Q7.33207 268.641 7.09715 268.569Q6.86224 268.498 6.6311 268.415Q6.39996 268.333 6.17316 268.239Q5.94636 268.145 5.72445 268.04Q5.50253 267.935 5.28603 267.819Q5.06953 267.703 4.85897 267.577Q4.64841 267.451 4.4443 267.315Q4.24018 267.178 4.04301 267.032Q3.84583 266.886 3.65607 266.73Q3.4663 266.574 3.28441 266.409Q3.10252 266.245 2.92893 266.071Q2.75535 265.897 2.59049 265.716Q2.42563 265.534 2.2699 265.344Q2.11416 265.154 1.96792 264.957Q1.82169 264.76 1.6853 264.556Q1.54892 264.352 1.42271 264.141Q1.29651 263.93 1.18079 263.714Q1.06507 263.497 0.960107 263.276Q0.855148 263.054 0.761205 262.827Q0.667261 262.6 0.584559 262.369Q0.501857 262.138 0.430597 261.903Q0.359336 261.668 0.299687 261.43Q0.240039 261.192 0.192147 260.951Q0.144255 260.71 0.108235 260.467Q0.0722146 260.224 0.0481527 259.98Q0.0240909 259.736 0.0120454 259.491Q0 259.245 0 259Z"/>
	<text fill="#00008B" font-size="16" font-family="CaskaydiaCove Nerd Font" x="5, 14.375, 23.75, 33.125, " y="254, ">
			q[1]
	</text>
	<path fill="none" stroke="#8A2BE2" stroke-width="3" stroke-miterlimit="4" d="M0 415L50 415"/>
	<path fill="#DBC7AF" d="M0 425L0 405Q0 404.755 0.0120454 404.509Q0.0240909 404.264 0.0481527 404.02Q0.0722146 403.775 0.108235 403.533Q0.144255 403.29 0.192147 403.049Q0.240039 402.808 0.299687 402.57Q0.359336 402.332 0.430597 402.097Q0.501857 401.862 0.584559 401.631Q0.667261 401.4 0.761205 401.173Q0.855148 400.946 0.960107 400.724Q1.06507 400.503 1.18079 400.286Q1.29651 400.069 1.42271 399.859Q1.54892 399.648 1.6853 399.444Q1.82169 399.24 1.96792 399.043Q2.11416 398.846 2.2699 398.656Q2.42563 398.466 2.59049 398.284Q2.75535 398.102 2.92893 397.929Q3.10252 397.755 3.28441 397.59Q3.4663 397.426 3.65607 397.27Q3.84583 397.114 4.04301 396.968Q4.24018 396.822 4.4443 396.685Q4.64841 396.549 4.85897 396.423Q5.06953 396.297 5.28603 396.181Q5.50253 396.065 5.72445 395.96Q5.94636 395.855 6.17316 395.761Q6.39996 395.667 6.6311 395.585Q6.86224 395.502 7.09715 395.431Q7.33207 395.359 7.5702 395.3Q7.80833 395.24 8.0491 395.192Q8.28987 395.144 8.53269 395.108Q8.77552 395.072 9.01983 395.048Q9.26413 395.024 9.50932 395.012Q9.75451 395 10 395L40 395Q40.2455 395 40.4907 395.012Q40.7359 395.024 40.9802 395.048Q41.2245 395.072 41.4673 395.108Q41.7101 395.144 41.9509 395.192Q42.1917 395.24 42.4298 395.3Q42.6679 395.359 42.9028 395.431Q43.1378 395.502 43.3689 395.585Q43.6 395.667 43.8268 395.761Q44.0536 395.855 44.2755 395.96Q44.4975 396.065 44.714 396.181Q44.9305 396.297 45.141 396.423Q45.3516 396.549 45.5557 396.685Q45.7598 396.822 45.957 396.968Q46.1542 397.114 46.3439 397.27Q46.5337 397.426 46.7156 397.59Q46.8975 397.755 47.0711 397.929Q47.2446 398.102 47.4095 398.284Q47.5744 398.466 47.7301 398.656Q47.8858 398.846 48.0321 399.043Q48.1783 399.24 48.3147 399.444Q48.4511 399.648 48.5773 399.859Q48.7035 400.069 48.8192 400.286Q48.9349 400.503 49.0399 400.724Q49.1448 400.946 49.2388 401.173Q49.3327 401.4 49.4154 401.631Q49.4981 401.862 49.5694 402.097Q49.6407 402.332 49.7003 402.57Q49.76 402.808 49.8078 403.049Q49.8557 403.29 49.8918 403.533Q49.9278 403.775 49.9518 404.02Q49.9759 404.264 49.988 404.509Q50 404.755 50 405L50 425Q50 425.245 49.988 425.491Q49.9759 425.736 49.9518 425.98Q49.9278 426.224 49.8918 426.467Q49.8557 426.71 49.8078 426.951Q49.76 427.192 49.7003 427.43Q49.6407 427.668 49.5694 427.903Q49.4981 428.138 49.4154 428.369Q49.3327 428.6 49.2388 428.827Q49.1448 429.054 49.0399 429.275Q48.9349 429.497 48.8192 429.714Q48.7035 429.93 48.5773 430.141Q48.4511 430.352 48.3147 430.556Q48.1783 430.76 48.0321 430.957Q47.8858 431.154 47.7301 431.344Q47.5744 431.534 47.4095 431.716Q47.2446 431.897 47.0711 432.071Q46.8975 432.245 46.7156 432.409Q46.5337 432.574 46.3439 432.73Q46.1542 432.886 45.957 433.032Q45.7598 433.178 45.5557 433.315Q45.3516 433.451 45.141 433.577Q44.9305 433.703 44.714 433.819Q44.4975 433.935 44.2755 434.04Q44.0536 434.145 43.8268 434.239Q43.6 434.333 43.3689 434.415Q43.1378 434.498 42.9028 434.569Q42.6679 434.641 42.4298 434.7Q42.1917 434.76 41.9509 434.808Q41.7101 434.856 41.4673 434.892Q41.2245 434.928 40.9802 434.952Q40.7359 434.976 40.4907 434.988Q40.2455 435 40 435L10 435Q9.75451 435 9.50932 434.988Q9.26413 434.976 9.01983 434.952Q8.77552 434.928 8.53269 434.892Q8.28987 434.856 8.0491 434.808Q7.80833 434.76 7.5702 434.7Q7.33207 434.641 7.09715 434.569Q6.86224 434.498 6.6311 434.415Q6.39996 434.333 6.17316 434.239Q5.94636 434.145 5.72445 434.04Q5.50253 433.935 5.28603 433.819Q5.06953 433.703 4.85897 433.577Q4.64841 433.451 4.4443 433.315Q4.24018 433.178 4.04301 433.032Q3.84583 432.886 3.65607 432.73Q3.4663 432.574 3.28441 432.409Q3.10252 432.245 2.92893 432.071Q2.75535 431.897 2.59049 431.716Q2.42563 431.534 2.2699 431.344Q2.11416 431.154 1.96792 430.957Q1.82169 430.76 1.6853 430.556Q1.54892 430.352 1.42271 430.141Q1.29651 429.93 1.18079 429.714Q1.06507 429.497 0.960107 429.275Q0.855148 429.054 0.761205 428.827Q0.667261 428.6 0.584559 428.369Q0.501857 428.138 0.430597 427.903Q0.359336 427.668 0.299687 427.43Q0.240039 427.192 0.192147 426.951Q0.144255 426.71 0.108235 426.467Q0.0722146 426.224 0.0481527 425.98Q0.0240909 425.736 0.0120454 425.491Q0 425.245 0 425Z"/>
	<text fill="#00008B" font-size="16" font-family="CaskaydiaCove Nerd Font" x="5, " y="420, ">
			c
	</text>
	<path fill="#DBC7AF" fill-opacity="0.27450982" d="M80 490L80 10Q80 9.75451 80.012 9.50932Q80.0241 9.26413 80.0482 9.01983Q80.0722 8.77552 80.1082 8.53269Q80.1442 8.28987 80.1921 8.0491Q80.24 7.80833 80.2997 7.5702Q80.3593 7.33207 80.4306 7.09715Q80.5018 6.86224 80.5845 6.6311Q80.6673 6.39996 80.7612 6.17316Q80.8551 5.94636 80.9601 5.72445Q81.0651 5.50253 81.1808 5.28603Q81.2965 5.06953 81.4227 4.85897Q81.5489 4.64841 81.6853 4.4443Q81.8217 4.24018 81.9679 4.04301Q82.1142 3.84583 82.2699 3.65607Q82.4256 3.4663 82.5905 3.28441Q82.7553 3.10252 82.9289 2.92893Q83.1025 2.75535 83.2844 2.59049Q83.4663 2.42563 83.6561 2.2699Q83.8458 2.11416 84.043 1.96792Q84.2402 1.82169 84.4443 1.6853Q84.6484 1.54892 84.859 1.42271Q85.0695 1.29651 85.286 1.18079Q85.5025 1.06507 85.7244 0.960107Q85.9463 0.855148 86.1731 0.761205Q86.3999 0.667261 86.6311 0.584559Q86.8622 0.501857 87.0972 0.430597Q87.3321 0.359336 87.5702 0.299687Q87.8083 0.240039 88.0491 0.192147Q88.2898 0.144255 88.5327 0.108235Q88.7755 0.0722146 89.0198 0.0481527Q89.2641 0.0240909 89.5093 0.0120454Q89.7545 0 90 0L185 0Q185.245 0 185.491 0.0120454Q185.736 0.0240909 185.98 0.0481527Q186.224 0.0722146 186.467 0.108235Q186.71 0.144255 186.951 0.192147Q187.192 0.240039 187.43 0.299687Q187.668 0.359336 187.903 0.430597Q188.138 0.501857 188.369 0.584559Q188.6 0.667261 188.827 0.761205Q189.054 0.855148 189.276 0.960107Q189.497 1.06507 189.714 1.18079Q189.93 1.29651 190.141 1.42271Q190.352 1.54892 190.556 1.6853Q190.76 1.82169 190.957 1.96792Q191.154 2.11416 191.344 2.2699Q191.534 2.42563 191.716 2.59049Q191.897 2.75535 192.071 2.92893Q192.245 3.10252 192.409 3.28441Q192.574 3.4663 192.73 3.65607Q192.886 3.84583 193.032 4.04301Q193.178 4.24018 193.315 4.4443Q193.451 4.64841 193.577 4.85897Q193.703 5.06953 193.819 5.28603Q193.935 5.50253 194.04 5.72445Q194.145 5.94636 194.239 6.17316Q194.333 6.39996 194.415 6.6311Q194.498 6.86224 194.569 7.09715Q194.641 7.33207 194.7 7.5702Q194.76 7.80833 194.808 8.0491Q194.856 8.28987 194.892 8.53269Q194.928 8.77552 194.952 9.01983Q194.976 9.26413 194.988 9.50932Q195 9.75451 195 10L195 490Q195 490.246 194.988 490.491Q194.976 490.736 194.952 490.98Q194.928 491.224 194.892 491.467Q194.856 491.71 194.808 491.951Q194.76 492.192 194.7 492.43Q194.641 492.668 194.569 492.903Q194.498 493.138 194.415 493.369Q194.333 493.6 194.239 493.827Q194.145 494.054 194.04 494.275Q193.935 494.497 193.819 494.714Q193.703 494.93 193.577 495.141Q193.451 495.352 193.315 495.556Q193.178 495.76 193.032 495.957Q192.886 496.154 192.73 496.344Q192.574 496.534 192.409 496.716Q192.245 496.897 192.071 497.071Q191.897 497.245 191.716 497.409Q191.534 497.574 191.344 497.73Q191.154 497.886 190.957 498.032Q190.76 498.178 190.556 498.315Q190.352 498.451 190.141 498.577Q189.93 498.703 189.714 498.819Q189.497 498.935 189.276 499.04Q189.054 499.145 188.827 499.239Q188.6 499.333 188.369 499.415Q188.138 499.498 187.903 499.569Q187.668 499.641 187.43 499.7Q187.192 499.76 186.951 499.808Q186.71 499.856 186.467 499.892Q186.224 499.928 185.98 499.952Q185.736 499.976 185.491 499.988Q185.245 500 185 500L90 500Q89.7545 500 89.5093 499.988Q89.2641 499.976 89.0198 499.952Q88.7755 499.928 88.5327 499.892Q88.2898 499.856 88.0491 499.808Q87.8083 499.76 87.5702 499.7Q87.3321 499.641 87.0972 499.569Q86.8622 499.498 86.6311 499.415Q86.3999 499.333 86.1731 499.239Q85.9463 499.145 85.7244 499.04Q85.5025 498.935 85.286 498.819Q85.0695 498.703 84.859 498.577Q84.6484 498.451 84.4443 498.315Q84.2402 498.178 84.043 498.032Q83.8458 497.886 83.6561 497.73Q83.4663 497.574 83.2844 497.409Q83.1025 497.245 82.9289 497.071Q82.7553 496.897 82.5905 496.716Q82.4256 496.534 82.2699 496.344Q82.1142 496.154 81.9679 495.957Q81.8217 495.76 81.6853 495.556Q81.5489 495.352 81.4227 495.141Q81.2965 494.93 81.1808 494.714Q81.0651 494.497 80.9601 494.275Q80.8551 494.054 80.7612 493.827Q80.6673 493.6 80.5845 493.369Q80.5018 493.138 80.4306 492.903Q80.3593 492.668 80.2997 492.43Q80.24 492.192 80.1921 491.951Q80.1442 491.71 80.1082 491.467Q80.0722 491.224 80.0482 490.98Q80.0241 490.736 80.012 490.491Q80 490.246 80 490Z"/>
	<path fill="none" stroke="#8A2BE2" stroke-width="3" stroke-linecap="round" stroke-miterlimit="4" d="M50 83L225 83"/>
	<path fill="none" stroke="#8A2BE2" stroke-width="3" stroke-linecap="round" stroke-miterlimit="4" d="M50 249L225 249"/>
	<path fill="none" stroke="#8A2BE2" stroke-width="3" stroke-linecap="round" stroke-miterlimit="4" d="M50 415L225 415"/>
	<path fill="#8D0B3D" d="M90 146L90 20Q90 19.7545 90.012 19.5093Q90.0241 19.2641 90.0482 19.0198Q90.0722 18.7755 90.1082 18.5327Q90.1443 18.2899 90.1921 18.0491Q90.24 17.8083 90.2997 17.5702Q90.3593 17.3321 90.4306 17.0972Q90.5019 16.8622 90.5845 16.6311Q90.6673 16.4 90.7612 16.1732Q90.8551 15.9464 90.9601 15.7244Q91.0651 15.5025 91.1808 15.286Q91.2965 15.0695 91.4227 14.859Q91.5489 14.6484 91.6853 14.4443Q91.8217 14.2402 91.9679 14.043Q92.1142 13.8458 92.2699 13.6561Q92.4256 13.4663 92.5905 13.2844Q92.7553 13.1025 92.9289 12.9289Q93.1025 12.7553 93.2844 12.5905Q93.4663 12.4256 93.6561 12.2699Q93.8458 12.1142 94.043 11.9679Q94.2402 11.8217 94.4443 11.6853Q94.6484 11.5489 94.859 11.4227Q95.0695 11.2965 95.286 11.1808Q95.5025 11.0651 95.7244 10.9601Q95.9464 10.8551 96.1732 10.7612Q96.4 10.6673 96.6311 10.5846Q96.8622 10.5019 97.0972 10.4306Q97.3321 10.3593 97.5702 10.2997Q97.8083 10.24 98.0491 10.1921Q98.2899 10.1443 98.5327 10.1082Q98.7755 10.0722 99.0198 10.0482Q99.2641 10.0241 99.5093 10.012Q99.7545 10 100 10L175 10Q175.245 10 175.491 10.012Q175.736 10.0241 175.98 10.0482Q176.224 10.0722 176.467 10.1082Q176.71 10.1443 176.951 10.1921Q177.192 10.24 177.43 10.2997Q177.668 10.3593 177.903 10.4306Q178.138 10.5019 178.369 10.5846Q178.6 10.6673 178.827 10.7612Q179.054 10.8551 179.276 10.9601Q179.497 11.0651 179.714 11.1808Q179.93 11.2965 180.141 11.4227Q180.352 11.5489 180.556 11.6853Q180.76 11.8217 180.957 11.9679Q181.154 12.1142 181.344 12.2699Q181.534 12.4256 181.716 12.5905Q181.897 12.7553 182.071 12.9289Q182.245 13.1025 182.41 13.2844Q182.574 13.4663 182.73 13.6561Q182.886 13.8458 183.032 14.043Q183.178 14.2402 183.315 14.4443Q183.451 14.6484 183.577 14.859Q183.703 15.0695 183.819 15.286Q183.935 15.5025 184.04 15.7244Q184.145 15.9464 184.239 16.1732Q184.333 16.4 184.415 16.6311Q184.498 16.8622 184.569 17.0972Q184.641 17.3321 184.7 17.5702Q184.76 17.8083 184.808 18.0491Q184.856 18.2899 184.892 18.5327Q184.928 18.7755 184.952 19.0198Q184.976 19.2641 184.988 19.5093Q185 19.7545 185 20L185 146Q185 146.245 184.988 146.491Q184.976 146.736 184.952 146.98Q184.928 147.224 184.892 147.467Q184.856 147.71 184.808 147.951Q184.76 148.192 184.7 148.43Q184.641 148.668 184.569 148.903Q184.498 149.138 184.415 149.369Q184.333 149.6 184.239 149.827Q184.145 150.054 184.04 150.276Q183.935 150.497 183.819 150.714Q183.703 150.93 183.577 151.141Q183.451 151.352 183.315 151.556Q183.178 151.76 183.032 151.957Q182.886 152.154 182.73 152.344Q182.574 152.534 182.409 152.716Q182.245 152.897 182.071 153.071Q181.897 153.245 181.716 153.41Q181.534 153.574 181.344 153.73Q181.154 153.886 180.957 154.032Q180.76 154.178 180.556 154.315Q180.352 154.451 180.141 154.577Q179.93 154.703 179.714 154.819Q179.497 154.935 179.276 155.04Q179.054 155.145 178.827 155.239Q178.6 155.333 178.369 155.415Q178.138 155.498 177.903 155.569Q177.668 155.641 177.43 155.7Q177.192 155.76 176.951 155.808Q176.71 155.856 176.467 155.892Q176.224 155.928 175.98 155.952Q175.736 155.976 175.491 155.988Q175.245 156 175 156L100 156Q99.7545 156 99.5093 155.988Q99.2641 155.976 99.0198 155.952Q98.7755 155.928 98.5327 155.892Q98.2899 155.856 98.0491 155.808Q97.8083 155.76 97.5702 155.7Q97.3321 155.641 97.0972 155.569Q96.8622 155.498 96.6311 155.415Q96.4 155.333 96.1732 155.239Q95.9464 155.145 95.7244 155.04Q95.5025 154.935 95.286 154.819Q95.0695 154.703 94.859 154.577Q94.6484 154.451 94.4443 154.315Q94.2402 154.178 94.043 154.032Q93.8458 153.886 93.6561 153.73Q93.4663 153.574 93.2844 153.41Q93.1025 153.245 92.9289 153.071Q92.7553 152.897 92.5905 152.716Q92.4256 152.534 92.2699 152.344Q92.1142 152.154 91.9679 151.957Q91.8217 151.76 91.6853 151.556Q91.5489 151.352 91.4227 151.141Q91.2965 150.93 91.1808 150.714Q91.0651 150.497 90.9601 150.276Q90.8551 150.054 90.7612 149.827Q90.6673 149.6 90.5845 149.369Q90.5019 149.138 90.4306 148.903Q90.3593 148.668 90.2997 148.43Q90.24 148.192 90.1921 147.951Q90.1443 147.71 90.1082 147.467Q90.0722 147.224 90.0482 146.98Q90.0241 146.736 90.012 146.491Q90 146.245 90 146Z"/>
	<text fill="white" font-size="20" font-family="CaskaydiaCove Nerd Font" x="108, " y="88, ">
			H
	</text>
	<path fill="#DBC7AF" fill-opacity="0.27450982" d="M225 490L225 10Q225 9.75451 225.012 9.50932Q225.024 9.26413 225.048 9.01983Q225.072 8.77552 225.108 8.53269Q225.144 8.28987 225.192 8.0491Q225.24 7.80833 225.3 7.5702Q225.359 7.33207 225.431 7.09715Q225.502 6.86224 225.585 6.6311Q225.667 6.39996 225.761 6.17316Q225.855 5.94636 225.96 5.72445Q226.065 5.50253 226.181 5.28603Q226.297 5.06953 226.423 4.85897Q226.549 4.64841 226.685 4.4443Q226.822 4.24018 226.968 4.04301Q227.114 3.84583 227.27 3.65607Q227.426 3.4663 227.59 3.28441Q227.755 3.10252 227.929 2.92893Q228.103 2.75535 228.284 2.59049Q228.466 2.42563 228.656 2.2699Q228.846 2.11416 229.043 1.96792Q229.24 1.82169 229.444 1.6853Q229.648 1.54892 229.859 1.42271Q230.07 1.29651 230.286 1.18079Q230.503 1.06507 230.724 0.960107Q230.946 0.855148 231.173 0.761205Q231.4 0.667261 231.631 0.584559Q231.862 0.501857 232.097 0.430597Q232.332 0.359336 232.57 0.299687Q232.808 0.240039 233.049 0.192147Q233.29 0.144255 233.533 0.108235Q233.776 0.0722146 234.02 0.0481527Q234.264 0.0240909 234.509 0.0120454Q234.755 0 235 0L330 0Q330.245 0 330.491 0.0120454Q330.736 0.0240909 330.98 0.0481527Q331.224 0.0722146 331.467 0.108235Q331.71 0.144255 331.951 0.192147Q332.192 0.240039 332.43 0.299687Q332.668 0.359336 332.903 0.430597Q333.138 0.501857 333.369 0.584559Q333.6 0.667261 333.827 0.761205Q334.054 0.855148 334.276 0.960107Q334.497 1.06507 334.714 1.18079Q334.93 1.29651 335.141 1.42271Q335.352 1.54892 335.556 1.6853Q335.76 1.82169 335.957 1.96792Q336.154 2.11416 336.344 2.2699Q336.534 2.42563 336.716 2.59049Q336.897 2.75535 337.071 2.92893Q337.245 3.10252 337.409 3.28441Q337.574 3.4663 337.73 3.65607Q337.886 3.84583 338.032 4.04301Q338.178 4.24018 338.315 4.4443Q338.451 4.64841 338.577 4.85897Q338.703 5.06953 338.819 5.28603Q338.935 5.50253 339.04 5.72445Q339.145 5.94636 339.239 6.17316Q339.333 6.39996 339.415 6.6311Q339.498 6.86224 339.569 7.09715Q339.641 7.33207 339.7 7.5702Q339.76 7.80833 339.808 8.0491Q339.856 8.28987 339.892 8.53269Q339.928 8.77552 339.952 9.01983Q339.976 9.26413 339.988 9.50932Q340 9.75451 340 10L340 490Q340 490.246 339.988 490.491Q339.976 490.736 339.952 490.98Q339.928 491.224 339.892 491.467Q339.856 491.71 339.808 491.951Q339.76 492.192 339.7 492.43Q339.641 492.668 339.569 492.903Q339.498 493.138 339.415 493.369Q339.333 493.6 339.239 493.827Q339.145 494.054 339.04 494.275Q338.935 494.497 338.819 494.714Q338.703 494.93 338.577 495.141Q338.451 495.352 338.315 495.556Q338.178 495.76 338.032 495.957Q337.886 496.154 337.73 496.344Q337.574 496.534 337.409 496.716Q337.245 496.897 337.071 497.071Q336.897 497.245 336.716 497.409Q336.534 497.574 336.344 497.73Q336.154 497.886 335.957 498.032Q335.76 498.178 335.556 498.315Q335.352 498.451 335.141 498.577Q334.93 498.703 334.714 498.819Q334.497 498.935 334.276 499.04Q334.054 499.145 333.827 499.239Q333.6 499.333 333.369 499.415Q333.138 499.498 332.903 499.569Q332.668 499.641 332.43 499.7Q332.192 499.76 331.951 499.808Q331.71 499.856 331.467 499.892Q331.224 499.928 330.98 499.952Q330.736 499.976 330.491 499.988Q330.245 500 330 500L235 500Q234.755 500 234.509 499.988Q234.264 499.976 234.02 499.952Q233.776 499.928 233.533 499.892Q233.29 499.856 233.049 499.808Q232.808 499.76 232.57 499.7Q232.332 499.641 232.097 499.569Q231.862 499.498 231.631 499.415Q231.4 499.333 231.173 499.239Q230.946 499.145 230.724 499.04Q230.503 498.935 230.286 498.819Q230.07 498.703 229.859 498.577Q229.648 498.451 229.444 498.315Q229.24 498.178 229.043 498.032Q228.846 497.886 228.656 497.73Q228.466 497.574 228.284 497.409Q228.103 497.245 227.929 497.071Q227.755 496.897 227.59 496.716Q227.426 496.534 227.27 496.344Q227.114 496.154 226.968 495.957Q226.822 495.76 226.685 495.556Q226.549 495.352 226.423 495.141Q226.296 494.93 226.181 494.714Q226.065 494.497 225.96 494.275Q225.855 494.054 225.761 493.827Q225.667 493.6 225.585 493.369Q225.502 493.138 225.431 492.903Q225.359 492.668 225.3 492.43Q225.24 492.192 225.192 491.951Q225.144 491.71 225.108 491.467Q225.072 491.224 225.048 490.98Q225.024 490.736 225.012 490.491Q225 490.246 225 490Z"/>
	<path fill="none" stroke="#8A2BE2" stroke-width="3" stroke-linecap="round" stroke-miterlimit="4" d="M195 83L370 83"/>
	<path fill="none" stroke="#8A2BE2" stroke-width="3" stroke-linecap="round" stroke-miterlimit="4" d="M195 249L370 249"/>
	<path fill="none" stroke="#8A2BE2" stroke-width="3" stroke-linecap="round" stroke-miterlimit="4" d="M195 415L370 415"/>
	<path fill="#8D0B3D" d="M235 312L235 20Q235 19.7545 235.012 19.5093Q235.024 19.2641 235.048 19.0198Q235.072 18.7755 235.108 18.5327Q235.144 18.2899 235.192 18.0491Q235.24 17.8083 235.3 17.5702Q235.359 17.3321 235.431 17.0972Q235.502 16.8622 235.585 16.6311Q235.667 16.4 235.761 16.1732Q235.855 15.9464 235.96 15.7244Q236.065 15.5025 236.181 15.286Q236.297 15.0695 236.423 14.859Q236.549 14.6484 236.685 14.4443Q236.822 14.2402 236.968 14.043Q237.114 13.8458 237.27 13.6561Q237.426 13.4663 237.59 13.2844Q237.755 13.1025 237.929 12.9289Q238.103 12.7553 238.284 12.5905Q238.466 12.4256 238.656 12.2699Q238.846 12.1142 239.043 11.9679Q239.24 11.8217 239.444 11.6853Q239.648 11.5489 239.859 11.4227Q240.07 11.2965 240.286 11.1808Q240.503 11.0651 240.724 10.9601Q240.946 10.8551 241.173 10.7612Q241.4 10.6673 241.631 10.5846Q241.862 10.5019 242.097 10.4306Q242.332 10.3593 242.57 10.2997Q242.808 10.24 243.049 10.1921Q243.29 10.1443 243.533 10.1082Q243.776 10.0722 244.02 10.0482Q244.264 10.0241 244.509 10.012Q244.755 10 245 10L320 10Q320.245 10 320.491 10.012Q320.736 10.0241 320.98 10.0482Q321.224 10.0722 321.467 10.1082Q321.71 10.1443 321.951 10.1921Q322.192 10.24 322.43 10.2997Q322.668 10.3593 322.903 10.4306Q323.138 10.5019 323.369 10.5846Q323.6 10.6673 323.827 10.7612Q324.054 10.8551 324.275 10.9601Q324.497 11.0651 324.714 11.1808Q324.93 11.2965 325.141 11.4227Q325.352 11.5489 325.556 11.6853Q325.76 11.8217 325.957 11.9679Q326.154 12.1142 326.344 12.2699Q326.534 12.4256 326.716 12.5905Q326.897 12.7553 327.071 12.9289Q327.245 13.1025 327.41 13.2844Q327.574 13.4663 327.73 13.6561Q327.886 13.8458 328.032 14.043Q328.178 14.2402 328.315 14.4443Q328.451 14.6484 328.577 14.859Q328.703 15.0695 328.819 15.286Q328.935 15.5025 329.04 15.7244Q329.145 15.9464 329.239 16.1732Q329.333 16.4 329.415 16.6311Q329.498 16.8622 329.569 17.0972Q329.641 17.3321 329.7 17.5702Q329.76 17.8083 329.808 18.0491Q329.856 18.2899 329.892 18.5327Q329.928 18.7755 329.952 19.0198Q329.976 19.2641 329.988 19.5093Q330 19.7545 330 20L330 312Q330 312.245 329.988 312.491Q329.976 312.736 329.952 312.98Q329.928 313.224 329.892 313.467Q329.856 313.71 329.808 313.951Q329.76 314.192 329.7 314.43Q329.641 314.668 329.569 314.903Q329.498 315.138 329.415 315.369Q329.333 315.6 329.239 315.827Q329.145 316.054 329.04 316.275Q328.935 316.497 328.819 316.714Q328.703 316.93 328.577 317.141Q328.451 317.352 328.315 317.556Q328.178 317.76 328.032 317.957Q327.886 318.154 327.73 318.344Q327.574 318.534 327.41 318.716Q327.245 318.897 327.071 319.071Q326.897 319.245 326.716 319.409Q326.534 319.574 326.344 319.73Q326.154 319.886 325.957 320.032Q325.76 320.178 325.556 320.315Q325.352 320.451 325.141 320.577Q324.93 320.703 324.714 320.819Q324.497 320.935 324.275 321.04Q324.054 321.145 323.827 321.239Q323.6 321.333 323.369 321.415Q323.138 321.498 322.903 321.569Q322.668 321.641 322.43 321.7Q322.192 321.76 321.951 321.808Q321.71 321.856 321.467 321.892Q321.224 321.928 320.98 321.952Q320.736 321.976 320.491 321.988Q320.245 322 320 322L245 322Q244.755 322 244.509 321.988Q244.264 321.976 244.02 321.952Q243.776 321.928 243.533 321.892Q243.29 321.856 243.049 321.808Q242.808 321.76 242.57 321.7Q242.332 321.641 242.097 321.569Q241.862 321.498 241.631 321.415Q241.4 321.333 241.173 321.239Q240.946 321.145 240.724 321.04Q240.503 320.935 240.286 320.819Q240.07 320.703 239.859 320.577Q239.648 320.451 239.444 320.315Q239.24 320.178 239.043 320.032Q238.846 319.886 238.656 319.73Q238.466 319.574 238.284 319.409Q238.103 319.245 237.929 319.071Q237.755 318.897 237.59 318.716Q237.426 318.534 237.27 318.344Q237.114 318.154 236.968 317.957Q236.822 317.76 236.685 317.556Q236.549 317.352 236.423 317.141Q236.297 316.93 236.181 316.714Q236.065 316.497 235.96 316.275Q235.855 316.054 235.761 315.827Q235.667 315.6 235.585 315.369Q235.502 315.138 235.431 314.903Q235.359 314.668 235.3 314.43Q235.24 314.192 235.192 313.951Q235.144 313.71 235.108 313.467Q235.072 313.224 235.048 312.98Q235.024 312.736 235.012 312.491Q235 312.245 235 312Z"/>
	<text fill="white" font-size="20" font-family="CaskaydiaCove Nerd Font" x="253, 264.71875, 276.4375, 288.15625, " y="171, ">
			CNOT
	</text>
	<path fill="#DBC7AF" fill-opacity="0.27450982" d="M370 490L370 10Q370 9.75451 370.012 9.50932Q370.024 9.26413 370.048 9.01983Q370.072 8.77552 370.108 8.53269Q370.144 8.28987 370.192 8.0491Q370.24 7.80833 370.3 7.5702Q370.359 7.33207 370.431 7.09715Q370.502 6.86224 370.585 6.6311Q370.667 6.39996 370.761 6.17316Q370.855 5.94636 370.96 5.72445Q371.065 5.50253 371.181 5.28603Q371.297 5.06953 371.423 4.85897Q371.549 4.64841 371.685 4.4443Q371.822 4.24018 371.968 4.04301Q372.114 3.84583 372.27 3.65607Q372.426 3.4663 372.59 3.28441Q372.755 3.10252 372.929 2.92893Q373.103 2.75535 373.284 2.59049Q373.466 2.42563 373.656 2.2699Q373.846 2.11416 374.043 1.96792Q374.24 1.82169 374.444 1.6853Q374.648 1.54892 374.859 1.42271Q375.069 1.29651 375.286 1.18079Q375.502 1.06507 375.724 0.960107Q375.946 0.855148 376.173 0.761205Q376.4 0.667261 376.631 0.584559Q376.862 0.501857 377.097 0.430597Q377.332 0.359336 377.57 0.299687Q377.808 0.240039 378.049 0.192147Q378.29 0.144255 378.533 0.108235Q378.775 0.0722146 379.02 0.0481527Q379.264 0.0240909 379.509 0.0120454Q379.755 0 380 0L475 0Q475.245 0 475.491 0.0120454Q475.736 0.0240909 475.98 0.0481527Q476.224 0.0722146 476.467 0.108235Q476.71 0.144255 476.951 0.192147Q477.192 0.240039 477.43 0.299687Q477.668 0.359336 477.903 0.430597Q478.138 0.501857 478.369 0.584559Q478.6 0.667261 478.827 0.761205Q479.054 0.855148 479.275 0.960107Q479.497 1.06507 479.714 1.18079Q479.93 1.29651 480.141 1.42271Q480.352 1.54892 480.556 1.6853Q480.76 1.82169 480.957 1.96792Q481.154 2.11416 481.344 2.2699Q481.534 2.42563 481.716 2.59049Q481.897 2.75535 482.071 2.92893Q482.245 3.10252 482.41 3.28441Q482.574 3.4663 482.73 3.65607Q482.886 3.84583 483.032 4.04301Q483.178 4.24018 483.315 4.4443Q483.451 4.64841 483.577 4.85897Q483.703 5.06953 483.819 5.28603Q483.935 5.50253 484.04 5.72445Q484.145 5.94636 484.239 6.17316Q484.333 6.39996 484.415 6.6311Q484.498 6.86224 484.569 7.09715Q484.641 7.33207 484.7 7.5702Q484.76 7.80833 484.808 8.0491Q484.856 8.28987 484.892 8.53269Q484.928 8.77552 484.952 9.01983Q484.976 9.26413 484.988 9.50932Q485 9.75451 485 10L485 490Q485 490.246 484.988 490.491Q484.976 490.736 484.952 490.98Q484.928 491.224 484.892 491.467Q484.856 491.71 484.808 491.951Q484.76 492.192 484.7 492.43Q484.641 492.668 484.569 492.903Q484.498 493.138 484.415 493.369Q484.333 493.6 484.239 493.827Q484.145 494.054 484.04 494.275Q483.935 494.497 483.819 494.714Q483.703 494.93 483.577 495.141Q483.451 495.352 483.315 495.556Q483.178 495.76 483.032 495.957Q482.886 496.154 482.73 496.344Q482.574 496.534 482.409 496.716Q482.245 496.897 482.071 497.071Q481.897 497.245 481.716 497.409Q481.534 497.574 481.344 497.73Q481.154 497.886 480.957 498.032Q480.76 498.178 480.556 498.315Q480.352 498.451 480.141 498.577Q479.93 498.703 479.714 498.819Q479.497 498.935 479.275 499.04Q479.054 499.145 478.827 499.239Q478.6 499.333 478.369 499.415Q478.138 499.498 477.903 499.569Q477.668 499.641 477.43 499.7Q477.192 499.76 476.951 499.808Q476.71 499.856 476.467 499.892Q476.224 499.928 475.98 499.952Q475.736 499.976 475.491 499.988Q475.245 500 475 500L380 500Q379.755 500 379.509 499.988Q379.264 499.976 379.02 499.952Q378.775 499.928 378.533 499.892Q378.29 499.856 378.049 499.808Q377.808 499.76 377.57 499.7Q377.332 499.641 377.097 499.569Q376.862 499.498 376.631 499.415Q376.4 499.333 376.173 499.239Q375.946 499.145 375.724 499.04Q375.502 498.935 375.286 498.819Q375.069 498.703 374.859 498.577Q374.648 498.451 374.444 498.315Q374.24 498.178 374.043 498.032Q373.846 497.886 373.656 497.73Q373.466 497.574 373.284 497.409Q373.103 497.245 372.929 497.071Q372.755 496.897 372.59 496.716Q372.426 496.534 372.27 496.344Q372.114 496.154 371.968 495.957Q371.822 495.76 371.685 495.556Q371.549 495.352 371.423 495.141Q371.297 494.93 371.181 494.714Q371.065 494.497 370.96 494.275Q370.855 494.054 370.761 493.827Q370.667 493.6 370.585 493.369Q370.502 493.138 370.431 492.903Q370.359 492.668 370.3 492.43Q370.24 492.192 370.192 491.951Q370.144 491.71 370.108 491.467Q370.072 491.224 370.048 490.98Q370.024 490.736 370.012 490.491Q370 490.246 370 490Z"/>
	<path fill="none" stroke="#8A2BE2" stroke-width="3" stroke-linecap="round" stroke-miterlimit="4" d="M340 83L515 83"/>
	<path fill="none" stroke="#8A2BE2" stroke-width="3" stroke-linecap="round" stroke-miterlimit="4" d="M340 249L515 249"/>
	<path fill="none" stroke="#8A2BE2" stroke-width="3" stroke-linecap="round" stroke-miterlimit="4" d="M340 415L515 415"/>
	<path fill="#8D0B3D" d="M380 146L380 20Q380 19.7545 380.012 19.5093Q380.024 19.2641 380.048 19.0198Q380.072 18.7755 380.108 18.5327Q380.144 18.2899 380.192 18.0491Q380.24 17.8083 380.3 17.5702Q380.359 17.3321 380.431 17.0972Q380.502 16.8622 380.585 16.6311Q380.667 16.4 380.761 16.1732Q380.855 15.9464 380.96 15.7244Q381.065 15.5025 381.181 15.286Q381.296 15.0695 381.423 14.859Q381.549 14.6484 381.685 14.4443Q381.822 14.2402 381.968 14.043Q382.114 13.8458 382.27 13.6561Q382.426 13.4663 382.59 13.2844Q382.755 13.1025 382.929 12.9289Q383.102 12.7553 383.284 12.5905Q383.466 12.4256 383.656 12.2699Q383.846 12.1142 384.043 11.9679Q384.24 11.8217 384.444 11.6853Q384.648 11.5489 384.859 11.4227Q385.069 11.2965 385.286 11.1808Q385.502 11.0651 385.724 10.9601Q385.946 10.8551 386.173 10.7612Q386.4 10.6673 386.631 10.5846Q386.862 10.5019 387.097 10.4306Q387.332 10.3593 387.57 10.2997Q387.808 10.24 388.049 10.1921Q388.29 10.1443 388.533 10.1082Q388.775 10.0722 389.02 10.0482Q389.264 10.0241 389.509 10.012Q389.754 10 390 10L465 10Q465.245 10 465.491 10.012Q465.736 10.0241 465.98 10.0482Q466.224 10.0722 466.467 10.1082Q466.71 10.1443 466.951 10.1921Q467.192 10.24 467.43 10.2997Q467.668 10.3593 467.903 10.4306Q468.138 10.5019 468.369 10.5846Q468.6 10.6673 468.827 10.7612Q469.054 10.8551 469.275 10.9601Q469.497 11.0651 469.714 11.1808Q469.93 11.2965 470.141 11.4227Q470.352 11.5489 470.556 11.6853Q470.76 11.8217 470.957 11.9679Q471.154 12.1142 471.344 12.2699Q471.534 12.4256 471.716 12.5905Q471.897 12.7553 472.071 12.9289Q472.245 13.1025 472.409 13.2844Q472.574 13.4663 472.73 13.6561Q472.886 13.8458 473.032 14.043Q473.178 14.2402 473.315 14.4443Q473.451 14.6484 473.577 14.859Q473.703 15.0695 473.819 15.286Q473.935 15.5025 474.04 15.7244Q474.145 15.9464 474.239 16.1732Q474.333 16.4 474.415 16.6311Q474.498 16.8622 474.569 17.0972Q474.641 17.3321 474.7 17.5702Q474.76 17.8083 474.808 18.0491Q474.856 18.2899 474.892 18.5327Q474.928 18.7755 474.952 19.0198Q474.976 19.2641 474.988 19.5093Q475 19.7545 475 20L475 146Q475 146.245 474.988 146.491Q474.976 146.736 474.952 146.98Q474.928 147.224 474.892 147.467Q474.856 147.71 474.808 147.951Q474.76 148.192 474.7 148.43Q474.641 148.668 474.569 148.903Q474.498 149.138 474.415 149.369Q474.333 149.6 474.239 149.827Q474.145 150.054 474.04 150.276Q473.935 150.497 473.819 150.714Q473.703 150.93 473.577 151.141Q473.451 151.352 473.315 151.556Q473.178 151.76 473.032 151.957Q472.886 152.154 472.73 152.344Q472.574 152.534 472.41 152.716Q472.245 152.897 472.071 153.071Q471.897 153.245 471.716 153.41Q471.534 153.574 471.344 153.73Q471.154 153.886 470.957 154.032Q470.76 154.178 470.556 154.315Q470.352 154.451 470.141 154.577Q469.93 154.703 469.714 154.819Q469.497 154.935 469.276 155.04Q469.054 155.145 468.827 155.239Q468.6 155.333 468.369 155.415Q468.138 155.498 467.903 155.569Q467.668 155.641 467.43 155.7Q467.192 155.76 466.951 155.808Q466.71 155.856 466.467 155.892Q466.224 155.928 465.98 155.952Q465.736 155.976 465.491 155.988Q465.245 156 465 156L390 156Q389.754 156 389.509 155.988Q389.264 155.976 389.02 155.952Q388.775 155.928 388.533 155.892Q388.29 155.856 388.049 155.808Q387.808 155.76 387.57 155.7Q387.332 155.641 387.097 155.569Q386.862 155.498 386.631 155.415Q386.4 155.333 386.173 155.239Q385.946 155.145 385.724 155.04Q385.502 154.935 385.286 154.819Q385.069 154.703 384.859 154.577Q384.648 154.451 384.444 154.315Q384.24 154.178 384.043 154.032Q383.846 153.886 383.656 153.73Q383.466 153.574 383.284 153.41Q383.102 153.245 382.929 153.071Q382.755 152.897 382.59 152.716Q382.426 152.534 382.27 152.344Q382.114 152.154 381.968 151.957Q381.822 151.76 381.685 151.556Q381.549 151.352 381.423 151.141Q381.296 150.93 381.181 150.714Q381.065 150.497 380.96 150.276Q380.855 150.054 380.761 149.827Q380.667 149.6 380.585 149.369Q380.502 149.138 380.431 148.903Q380.359 148.668 380.3 148.43Q380.24 148.192 380.192 147.951Q380.144 147.71 380.108 147.467Q380.072 147.224 380.048 146.98Q380.024 146.736 380.012 146.491Q380 146.245 380 146Z"/>
	<text fill="white" font-size="20" font-family="CaskaydiaCove Nerd Font" x="398, " y="88, ">
			H
	</text>
	<path fill="#DBC7AF" fill-opacity="0.27450982" d="M515 490L515 10Q515 9.75451 515.012 9.50932Q515.024 9.26413 515.048 9.01983Q515.072 8.77552 515.108 8.53269Q515.144 8.28987 515.192 8.0491Q515.24 7.80833 515.3 7.5702Q515.359 7.33207 515.431 7.09715Q515.502 6.86224 515.584 6.6311Q515.667 6.39996 515.761 6.17316Q515.855 5.94636 515.96 5.72445Q516.065 5.50253 516.181 5.28603Q516.296 5.06953 516.423 4.85897Q516.549 4.64841 516.685 4.4443Q516.822 4.24018 516.968 4.04301Q517.114 3.84583 517.27 3.65607Q517.426 3.4663 517.59 3.28441Q517.755 3.10252 517.929 2.92893Q518.102 2.75535 518.284 2.59049Q518.466 2.42563 518.656 2.2699Q518.846 2.11416 519.043 1.96792Q519.24 1.82169 519.444 1.6853Q519.648 1.54892 519.859 1.42271Q520.07 1.29651 520.286 1.18079Q520.502 1.06507 520.724 0.960107Q520.946 0.855148 521.173 0.761205Q521.4 0.667261 521.631 0.584559Q521.862 0.501857 522.097 0.430597Q522.332 0.359336 522.57 0.299687Q522.808 0.240039 523.049 0.192147Q523.29 0.144255 523.533 0.108235Q523.776 0.0722146 524.02 0.0481527Q524.264 0.0240909 524.509 0.0120454Q524.755 0 525 0L620 0Q620.245 0 620.491 0.0120454Q620.736 0.0240909 620.98 0.0481527Q621.224 0.0722146 621.467 0.108235Q621.71 0.144255 621.951 0.192147Q622.192 0.240039 622.43 0.299687Q622.668 0.359336 622.903 0.430597Q623.138 0.501857 623.369 0.584559Q623.6 0.667261 623.827 0.761205Q624.054 0.855148 624.276 0.960107Q624.497 1.06507 624.714 1.18079Q624.93 1.29651 625.141 1.42271Q625.351 1.54892 625.556 1.6853Q625.76 1.82169 625.957 1.96792Q626.154 2.11416 626.344 2.2699Q626.534 2.42563 626.716 2.59049Q626.897 2.75535 627.071 2.92893Q627.245 3.10252 627.41 3.28441Q627.574 3.4663 627.73 3.65607Q627.886 3.84583 628.032 4.04301Q628.178 4.24018 628.315 4.4443Q628.451 4.64841 628.577 4.85897Q628.703 5.06953 628.819 5.28603Q628.935 5.50253 629.04 5.72445Q629.145 5.94636 629.239 6.17316Q629.333 6.39996 629.415 6.6311Q629.498 6.86224 629.569 7.09715Q629.641 7.33207 629.7 7.5702Q629.76 7.80833 629.808 8.0491Q629.856 8.28987 629.892 8.53269Q629.928 8.77552 629.952 9.01983Q629.976 9.26413 629.988 9.50932Q630 9.75451 630 10L630 490Q630 490.246 629.988 490.491Q629.976 490.736 629.952 490.98Q629.928 491.224 629.892 491.467Q629.856 491.71 629.808 491.951Q629.76 492.192 629.7 492.43Q629.641 492.668 629.569 492.903Q629.498 493.138 629.415 493.369Q629.333 493.6 629.239 493.827Q629.145 494.054 629.04 494.275Q628.935 494.497 628.819 494.714Q628.703 494.93 628.577 495.141Q628.451 495.352 628.315 495.556Q628.178 495.76 628.032 495.957Q627.886 496.154 627.73 496.344Q627.574 496.534 627.41 496.716Q627.245 496.897 627.071 497.071Q626.897 497.245 626.716 497.409Q626.534 497.574 626.344 497.73Q626.154 497.886 625.957 498.032Q625.76 498.178 625.556 498.315Q625.351 498.451 625.141 498.577Q624.93 498.703 624.714 498.819Q624.497 498.935 624.276 499.04Q624.054 499.145 623.827 499.239Q623.6 499.333 623.369 499.415Q623.138 499.498 622.903 499.569Q622.668 499.641 622.43 499.7Q622.192 499.76 621.951 499.808Q621.71 499.856 621.467 499.892Q621.224 499.928 620.98 499.952Q620.736 499.976 620.491 499.988Q620.245 500 620 500L525 500Q524.755 500 524.509 499.988Q524.264 499.976 524.02 499.952Q523.776 499.928 523.533 499.892Q523.29 499.856 523.049 499.808Q522.808 499.76 522.57 499.7Q522.332 499.641 522.097 499.569Q521.862 499.498 521.631 499.415Q521.4 499.333 521.173 499.239Q520.946 499.145 520.724 499.04Q520.503 498.935 520.286 498.819Q520.07 498.703 519.859 498.577Q519.648 498.451 519.444 498.315Q519.24 498.178 519.043 498.032Q518.846 497.886 518.656 497.73Q518.466 497.574 518.284 497.409Q518.102 497.245 517.929 497.071Q517.755 496.897 517.59 496.716Q517.426 496.534 517.27 496.344Q517.114 496.154 516.968 495.957Q516.822 495.76 516.685 495.556Q516.549 495.352 516.423 495.141Q516.296 494.93 516.181 494.714Q516.065 494.497 515.96 494.275Q515.855 494.054 515.761 493.827Q515.667 493.6 515.584 493.369Q515.502 493.138 515.431 492.903Q515.359 492.668 515.3 492.43Q515.24 492.192 515.192 491.951Q515.144 491.71 515.108 491.467Q515.072 491.224 515.048 490.98Q515.024 490.736 515.012 490.491Q515 490.246 515 490Z"/>
	<path fill="none" stroke="#8A2BE2" stroke-width="3" stroke-linecap="round" stroke-miterlimit="4" d="M485 83L660 83"/>
	<path fill="none" stroke="#8A2BE2" stroke-width="3" stroke-linecap="round" stroke-miterlimit="4" d="M485 249L660 249"/>
	<path fill="none" stroke="#8A2BE2" stroke-width="3" stroke-linecap="round" stroke-miterlimit="4" d="M485 415L660 415"/>
	<path fill="#8D0B3D" d="M525 478L525 20Q525 19.7545 525.012 19.5093Q525.024 19.2641 525.048 19.0198Q525.072 18.7755 525.108 18.5327Q525.144 18.2899 525.192 18.0491Q525.24 17.8083 525.3 17.5702Q525.359 17.3321 525.431 17.0972Q525.502 16.8622 525.585 16.6311Q525.667 16.4 525.761 16.1732Q525.855 15.9464 525.96 15.7244Q526.065 15.5025 526.181 15.286Q526.297 15.0695 526.423 14.859Q526.549 14.6484 526.685 14.4443Q526.822 14.2402 526.968 14.043Q527.114 13.8458 527.27 13.6561Q527.426 13.4663 527.591 13.2844Q527.755 13.1025 527.929 12.9289Q528.102 12.7553 528.284 12.5905Q528.466 12.4256 528.656 12.2699Q528.846 12.1142 529.043 11.9679Q529.24 11.8217 529.444 11.6853Q529.648 11.5489 529.859 11.4227Q530.07 11.2965 530.286 11.1808Q530.503 11.0651 530.724 10.9601Q530.946 10.8551 531.173 10.7612Q531.4 10.6673 531.631 10.5846Q531.862 10.5019 532.097 10.4306Q532.332 10.3593 532.57 10.2997Q532.808 10.24 533.049 10.1921Q533.29 10.1443 533.533 10.1082Q533.776 10.0722 534.02 10.0482Q534.264 10.0241 534.509 10.012Q534.755 10 535 10L610 10Q610.245 10 610.491 10.012Q610.736 10.0241 610.98 10.0482Q611.224 10.0722 611.467 10.1082Q611.71 10.1443 611.951 10.1921Q612.192 10.24 612.43 10.2997Q612.668 10.3593 612.903 10.4306Q613.138 10.5019 613.369 10.5846Q613.6 10.6673 613.827 10.7612Q614.054 10.8551 614.276 10.9601Q614.497 11.0651 614.714 11.1808Q614.931 11.2965 615.141 11.4227Q615.352 11.5489 615.556 11.6853Q615.76 11.8217 615.957 11.9679Q616.154 12.1142 616.344 12.2699Q616.534 12.4256 616.716 12.5905Q616.897 12.7553 617.071 12.9289Q617.245 13.1025 617.409 13.2844Q617.574 13.4663 617.73 13.6561Q617.886 13.8458 618.032 14.043Q618.178 14.2402 618.315 14.4443Q618.451 14.6484 618.577 14.859Q618.703 15.0695 618.819 15.286Q618.935 15.5025 619.04 15.7244Q619.145 15.9464 619.239 16.1732Q619.333 16.4 619.415 16.6311Q619.498 16.8622 619.569 17.0972Q619.641 17.3321 619.7 17.5702Q619.76 17.8083 619.808 18.0491Q619.856 18.2899 619.892 18.5327Q619.928 18.7755 619.952 19.0198Q619.976 19.2641 619.988 19.5093Q620 19.7545 620 20L620 478Q620 478.245 619.988 478.491Q619.976 478.736 619.952 478.98Q619.928 479.224 619.892 479.467Q619.856 479.71 619.808 479.951Q619.76 480.192 619.7 480.43Q619.641 480.668 619.569 480.903Q619.498 481.138 619.415 481.369Q619.333 481.6 619.239 481.827Q619.145 482.054 619.04 482.276Q618.935 482.497 618.819 482.714Q618.703 482.93 618.577 483.141Q618.451 483.352 618.315 483.556Q618.178 483.76 618.032 483.957Q617.886 484.154 617.73 484.344Q617.574 484.534 617.409 484.716Q617.245 484.897 617.071 485.071Q616.897 485.245 616.716 485.409Q616.534 485.574 616.344 485.73Q616.154 485.886 615.957 486.032Q615.76 486.178 615.556 486.315Q615.352 486.451 615.141 486.577Q614.931 486.703 614.714 486.819Q614.497 486.935 614.276 487.04Q614.054 487.145 613.827 487.239Q613.6 487.333 613.369 487.415Q613.138 487.498 612.903 487.569Q612.668 487.641 612.43 487.7Q612.192 487.76 611.951 487.808Q611.71 487.856 611.467 487.892Q611.224 487.928 610.98 487.952Q610.736 487.976 610.491 487.988Q610.245 488 610 488L535 488Q534.755 488 534.509 487.988Q534.264 487.976 534.02 487.952Q533.776 487.928 533.533 487.892Q533.29 487.856 533.049 487.808Q532.808 487.76 532.57 487.7Q532.332 487.641 532.097 487.569Q531.862 487.498 531.631 487.415Q531.4 487.333 531.173 487.239Q530.946 487.145 530.724 487.04Q530.503 486.935 530.286 486.819Q530.07 486.703 529.859 486.577Q529.648 486.451 529.444 486.315Q529.24 486.178 529.043 486.032Q528.846 485.886 528.656 485.73Q528.466 485.574 528.284 485.409Q528.102 485.245 527.929 485.071Q527.755 484.897 527.591 484.716Q527.426 484.534 527.27 484.344Q527.114 484.154 526.968 483.957Q526.822 483.76 526.685 483.556Q526.549 483.352 526.423 483.141Q526.297 482.93 526.181 482.714Q526.065 482.497 525.96 482.276Q525.855 482.054 525.761 481.827Q525.667 481.6 525.585 481.369Q525.502 481.138 525.431 480.903Q525.359 480.668 525.3 480.43Q525.24 480.192 525.192 479.951Q525.144 479.71 525.108 479.467Q525.072 479.224 525.048 478.98Q525.024 478.736 525.012 478.491Q525 478.245 525 478Z"/>
	<text fill="white" font-size="20" font-family="CaskaydiaCove Nerd Font" x="543, 554.71875, 566.4375, 578.15625, 589.875, 601.59375, 613.3125, " y="254, ">
			MEASURE
	</text>
</svg>
