<?xml version="1.0" encoding="utf-8" ?>
<svg xmlns="http://www.w3.org/2000/svg" xmlns:xlink="http://www.w3.org/1999/xlink" width="700" height="500">
	<path fill="none" stroke="#8A2BE2" stroke-width="3" stroke-miterlimit="4" d="M0 125L50 125"/>
	<path fill="#DBC7AF" d="M0 135L0 115Q0 114.755 0.0120454 114.509Q0.0240909 114.264 0.0481527 114.02Q0.0722146 113.776 0.108235 113.533Q0.144255 113.29 0.192147 113.049Q0.240039 112.808 0.299687 112.57Q0.359336 112.332 0.430597 112.097Q0.501857 111.862 0.584559 111.631Q0.667261 111.4 0.761205 111.173Q0.855148 110.946 0.960107 110.724Q1.06507 110.503 1.18079 110.286Q1.29651 110.07 1.42271 109.859Q1.54892 109.648 1.6853 109.444Q1.82169 109.24 1.96792 109.043Q2.11416 108.846 2.2699 108.656Q2.42563 108.466 2.59049 108.284Q2.75535 108.103 2.92893 107.929Q3.10252 107.755 3.28441 107.59Q3.4663 107.426 3.65607 107.27Q3.84583 107.114 4.04301 106.968Q4.24018 106.822 4.4443 106.685Q4.64841 106.549 4.85897 106.423Q5.06953 106.297 5.28603 106.181Q5.50253 106.065 5.72445 105.96Q5.94636 105.855 6.17316 105.761Q6.39996 105.667 6.6311 105.585Q6.86224 105.502 7.09715 105.431Q7.33207 105.359 7.5702 105.3Q7.80833 105.24 8.0491 105.192Q8.28987 105.144 8.53269 105.108Q8.77552 105.072 9.01983 105.048Q9.26413 105.024 9.50932 105.012Q9.75451 105 10 105L40 105Q40.2455 105 40.4907 105.012Q40.7359 105.024 40.9802 105.048Q41.2245 105.072 41.4673 105.108Q41.7101 105.144 41.9509 105.192Q42.1917 105.24 42.4298 105.3Q42.6679 105.359 42.9028 105.431Q43.1378 105.502 43.3689 105.585Q43.6 105.667 43.8268 105.761Q44.0536 105.855 44.2755 105.96Q44.4975 106.065 44.714 106.181Q44.9305 106.297 45.141 106.423Q45.3516 106.549 45.5557 106.685Q45.7598 106.822 45.957 106.968Q46.1542 107.114 46.3439 107.27Q46.5337 107.426 46.7156 107.59Q46.8975 107.755 47.0711 107.929Q47.2446 108.103 47.4095 108.284Q47.5744 108.466 47.7301 108.656Q47.8858 108.846 48.0321 109.043Q48.1783 109.24 48.3147 109.444Q48.4511 109.648 48.5773 109.859Q48.7035 110.07 48.8192 110.286Q48.9349 110.503 49.0399 110.724Q49.1448 110.946 49.2388 111.173Q49.3327 111.4 49.4154 111.631Q49.4981 111.862 49.5694 112.097Q49.6407 112.332 49.7003 112.57Q49.76 112.808 49.8078 113.049Q49.8557 113.29 49.8918 113.533Q49.9278 113.776 49.9518 114.02Q49.9759 114.264 49.988 114.509Q50 114.755 50 115L50 135Q50 135.245 49.988 135.491Q49.9759 135.736 49.9518 135.98Q49.9278 136.224 49.8918 136.467Q49.8557 136.71 49.8078 136.951Q49.76 137.192 49.7003 137.43Q49.6407 137.668 49.5694 137.903Q49.4981 138.138 49.4154 138.369Q49.3327 138.6 49.2388 138.827Q49.1448 139.054 49.0399 139.276Q48.9349 139.497 48.8192 139.714Q48.7035 139.93 48.5773 140.141Q48.4511 140.352 48.3147 140.556Q48.1783 140.76 48.0321 140.957Q47.8858 141.154 47.7301 141.344Q47.5744 141.534 47.4095 141.716Q47.2446 141.897 47.0711 142.071Q46.8975 142.245 46.7156 142.41Q46.5337 142.574 46.3439 142.73Q46.1542 142.886 45.957 143.032Q45.7598 143.178 45.5557 143.315Q45.3516 143.451 45.141 143.577Q44.9305 143.703 44.714 143.819Q44.4975 143.935 44.2755 144.04Q44.0536 144.145 43.8268 144.239Q43.6 144.333 43.3689 144.415Q43.1378 144.498 42.9028 144.569Q42.6679 144.641 42.4298 144.7Q42.1917 144.76 41.9509 144.808Q41.7101 144.856 41.4673 144.892Q41.2245 144.928 40.9802 144.952Q40.7359 144.976 40.4907 144.988Q40.2455 145 40 145L10 145Q9.75451 145 9.50932 144.988Q9.26413 144.976 9.01983 144.952Q8.77552 144.928 8.53269 144.892Q8.28987 144.856 8.0491 144.808Q7.80833 144.76 7.5702 144.7Q7.33207 144.641 7.09715 144.569Q6.86224 144.498 6.6311 144.415Q6.39996 144.333 6.17316 144.239Q5.94636 144.145 5.72445 144.04Q5.50253 143.935 5.28603 143.819Q5.06953 143.703 4.85897 143.577Q4.64841 143.451 4.4443 143.315Q4.24018 143.178 4.04301 143.032Q3.84583 142.886 3.65607 142.73Q3.4663 142.574 3.28441 142.41Q3.10252 142.245 2.92893 142.071Q2.75535 141.897 2.59049 141.716Q2.42563 141.534 2.2699 141.344Q2.11416 141.154 1.96792 140.957Q1.82169 140.76 1.6853 140.556Q1.54892 140.352 1.42271 140.141Q1.29651 139.93 1.18079 139.714Q1.06507 139.497 0.960107 139.276Q0.855148 139.054 0.761205 138.827Q0.667261 138.6 0.584559 138.369Q0.501857 138.138 0.430597 137.903Q0.359336 137.668 0.299687 137.43Q0.240039 137.192 0.192147 136.951Q0.144255 136.71 0.108235 136.467Q0.0722146 136.224 0.0481527 135.98Q0.0240909 135.736 0.0120454 135.491Q0 135.245 0 135Z"/>
	<text fill="#00008B" font-size="16" font-family="CaskaydiaCove Nerd Font" x="5, " y="130, ">
			q
	</text>
	<path fill="none" stroke="#8A2BE2" stroke-width="3" stroke-miterlimit="4" d="M0 375L50 375"/>
	<path fill="#DBC7AF" d="M0 385L0 365Q0 364.755 0.0120454 364.509Q0.0240909 364.264 0.0481527 364.02Q0.0722146 363.776 0.108235 363.533Q0.144255 363.29 0.192147 363.049Q0.240039 362.808 0.299687 362.57Q0.359336 362.332 0.430597 362.097Q0.501857 361.862 0.584559 361.631Q0.667261 361.4 0.761205 361.173Q0.855148 360.946 0.960107 360.724Q1.06507 360.503 1.18079 360.286Q1.29651 360.07 1.42271 359.859Q1.54892 359.648 1.6853 359.444Q1.82169 359.24 1.96792 359.043Q2.11416 358.846 2.2699 358.656Q2.42563 358.466 2.59049 358.284Q2.75535 358.102 2.92893 357.929Q3.10252 357.755 3.28441 357.59Q3.4663 357.426 3.65607 357.27Q3.84583 357.114 4.04301 356.968Q4.24018 356.822 4.4443 356.685Q4.64841 356.549 4.85897 356.423Q5.06953 356.296 5.28603 356.181Q5.50253 356.065 5.72445 355.96Q5.94636 355.855 6.17316 355.761Q6.39996 355.667 6.6311 355.585Q6.86224 355.502 7.09715 355.431Q7.33207 355.359 7.5702 355.3Q7.80833 355.24 8.0491 355.192Q8.28987 355.144 8.53269 355.108Q8.77552 355.072 9.01983 355.048Q9.26413 355.024 9.50932 355.012Q9.75451 355 10 355L40 355Q40.2455 355 40.4907 355.012Q40.7359 355.024 40.9802 355.048Q41.2245 355.072 41.4673 355.108Q41.7101 355.144 41.9509 355.192Q42.1917 355.24 42.4298 355.3Q42.6679 355.359 42.9028 355.431Q43.1378 355.502 43.3689 355.585Q43.6 355.667 43.8268 355.761Q44.0536 355.855 44.2755 355.96Q44.4975 356.065 44.714 356.181Q44.9305 356.296 45.141 356.423Q45.3516 356.549 45.5557 356.685Q45.7598 356.822 45.957 356.968Q46.1542 357.114 46.3439 357.27Q46.5337 357.426 46.7156 357.59Q46.8975 357.755 47.0711 357.929Q47.2446 358.102 47.4095 358.284Q47.5744 358.466 47.7301 358.656Q47.8858 358.846 48.0321 359.043Q48.1783 359.24 48.3147 359.444Q48.4511 359.648 48.5773 359.859Q48.7035 360.07 48.8192 360.286Q48.9349 360.503 49.0399 360.724Q49.1448 360.946 49.2388 361.173Q49.3327 361.4 49.4154 361.631Q49.4981 361.862 49.5694 362.097Q49.6407 362.332 49.7003 362.57Q49.76 362.808 49.8078 363.049Q49.8557 363.29 49.8918 363.533Q49.9278 363.776 49.9518 364.02Q49.9759 364.264 49.988 364.509Q50 364.755 50 365L50 385Q50 385.245 49.988 385.491Q49.9759 385.736 49.9518 385.98Q49.9278 386.224 49.8918 386.467Q49.8557 386.71 49.8078 386.951Q49.76 387.192 49.7003 387.43Q49.6407 387.668 49.5694 387.903Q49.4981 388.138 49.4154 388.369Q49.3327 388.6 49.2388 388.827Q49.1448 389.054 49.0399 389.276Q48.9349 389.497 48.8192 389.714Q48.7035 389.93 48.5773 390.141Q48.4511 390.352 48.3147 390.556Q48.1783 390.76 48.0321 390.957Q47.8858 391.154 47.7301 391.344Q47.5744 391.534 47.4095 391.716Q47.2446 391.897 47.0711 392.071Q46.8975 392.245 46.7156 392.409Q46.5337 392.574 46.3439 392.73Q46.1542 392.886 45.957 393.032Q45.7598 393.178 45.5557 393.315Q45.3516 393.451 45.141 393.577Q44.9305 393.703 44.714 393.819Q44.4975 393.935 44.2755 394.04Q44.0536 394.145 43.8268 394.239Q43.6 394.333 43.3689 394.415Q43.1378 394.498 42.9028 394.569Q42.6679 394.641 42.4298 394.7Q42.1917 394.76 41.9509 394.808Q41.7101 394.856 41.4673 394.892Q41.2245 394.928 40.9802 394.952Q40.7359 394.976 40.4907 394.988Q40.2455 395 40 395L10 395Q9.75451 395 9.50932 394.988Q9.26413 394.976 9.01983 394.952Q8.77552 394.928 8.53269 394.892Q8.28987 394.856 8.0491 394.808Q7.80833 394.76 7.5702 394.7Q7.33207 394.641 7.09715 394.569Q6.86224 394.498 6.6311 394.415Q6.39996 394.333 6.17316 394.239Q5.94636 394.145 5.72445 394.04Q5.50253 393.935 5.28603 393.819Q5.06953 393.703 4.85897 393.577Q4.64841 393.451 4.4443 393.315Q4.24018 393.178 4.04301 393.032Q3.84583 392.886 3.65607 392.73Q3.4663 392.574 3.28441 392.409Q3.10252 392.245 2.92893 392.071Q2.75535 391.897 2.59049 391.716Q2.42563 391.534 2.2699 391.344Q2.11416 391.154 1.96792 390.957Q1.82169 390.76 1.6853 390.556Q1.54892 390.352 1.42271 390.141Q1.29651 389.93 1.18079 389.714Q1.06507 389.497 0.960107 389.275Q0.855148 389.054 0.761205 388.827Q0.667261 388.6 0.584559 388.369Q0.501857 388.138 0.430597 387.903Q0.359336 387.668 0.299687 387.43Q0.240039 387.192 0.192147 386.951Q0.144255 386.71 0.108235 386.467Q0.0722146 386.224 0.0481527 385.98Q0.0240909 385.736 0.0120454 385.491Q0 385.245 0 385Z"/>
	<text fill="#00008B" font-size="16" font-family="CaskaydiaCove Nerd Font" x="5, " y="380, ">
			c
	</text>
	<path fill="#DBC7AF" fill-opacity="0.27450982" d="M80 490L80 10Q80 9.75451 80.012 9.50932Q80.0241 9.26413 80.0482 9.01983Q80.0722 8.77552 80.1082 8.53269Q80.1442 8.28987 80.1921 8.0491Q80.24 7.80833 80.2997 7.5702Q80.3593 7.33207 80.4306 7.09715Q80.5018 6.86224 80.5845 6.6311Q80.6673 6.39996 80.7612 6.17316Q80.8551 5.94636 80.9601 5.72445Q81.0651 5.50253 81.1808 5.28603Q81.2965 5.06953 81.4227 4.85897Q81.5489 4.64841 81.6853 4.4443Q81.8217 4.24018 81.9679 4.04301Q82.1142 3.84583 82.2699 3.65607Q82.4256 3.4663 82.5905 3.28441Q82.7553 3.10252 82.9289 2.92893Q83.1025 2.75535 83.2844 2.59049Q83.4663 2.42563 83.6561 2.2699Q83.8458 2.11416 84.043 1.96792Q84.2402 1.82169 84.4443 1.6853Q84.6484 1.54892 84.859 1.42271Q85.0695 1.29651 85.286 1.18079Q85.5025 1.06507 85.7244 0.960107Q85.9463 0.855148 86.1731 0.761205Q86.3999 0.667261 86.6311 0.584559Q86.8622 0.501857 87.0972 0.430597Q87.3321 0.359336 87.5702 0.299687Q87.8083 0.240039 88.0491 0.192147Q88.2898 0.144255 88.5327 0.108235Q88.7755 0.0722146 89.0198 0.0481527Q89.2641 0.0240909 89.5093 0.0120454Q89.7545 0 90 0L360 0Q360.245 0 360.491 0.0120454Q360.736 0.0240909 360.98 0.0481527Q361.224 0.0722146 361.467 0.108235Q361.71 0.144255 361.951 0.192147Q362.192 0.240039 362.43 0.299687Q362.668 0.359336 362.903 0.430597Q363.138 0.501857 363.369 0.584559Q363.6 0.667261 363.827 0.761205Q364.054 0.855148 364.275 0.960107Q364.497 1.06507 364.714 1.18079Q364.93 1.29651 365.141 1.42271Q365.352 1.54892 365.556 1.6853Q365.76 1.82169 365.957 1.96792Q366.154 2.11416 366.344 2.2699Q366.534 2.42563 366.716 2.59049Q366.897 2.75535 367.071 2.92893Q367.245 3.10252 367.41 3.28441Q367.574 3.4663 367.73 3.65607Q367.886 3.84583 368.032 4.04301Q368.178 4.24018 368.315 4.4443Q368.451 4.64841 368.577 4.85897Q368.703 5.06953 368.819 5.28603Q368.935 5.50253 369.04 5.72445Q369.145 5.94636 369.239 6.17316Q369.333 6.39996 369.415 6.6311Q369.498 6.86224 369.569 7.09715Q369.641 7.33207 369.7 7.5702Q369.76 7.80833 369.808 8.0491Q369.856 8.28987 369.892 8.53269Q369.928 8.77552 369.952 9.01983Q369.976 9.26413 369.988 9.50932Q370 9.75451 370 10L370 490Q370 490.246 369.988 490.491Q369.976 490.736 369.952 490.98Q369.928 491.224 369.892 491.467Q369.856 491.71 369.808 491.951Q369.76 492.192 369.7 492.43Q369.641 492.668 369.569 492.903Q369.498 493.138 369.415 493.369Q369.333 493.6 369.239 493.827Q369.145 494.054 369.04 494.275Q368.935 494.497 368.819 494.714Q368.703 494.93 368.577 495.141Q368.451 495.352 368.315 495.556Q368.178 495.76 368.032 495.957Q367.886 496.154 367.73 496.344Q367.574 496.534 367.41 496.716Q367.245 496.897 367.071 497.071Q366.897 497.245 366.716 497.409Q366.534 497.574 366.344 497.73Q366.154 497.886 365.957 498.032Q365.76 498.178 365.556 498.315Q365.352 498.451 365.141 498.577Q364.93 498.703 364.714 498.819Q364.497 498.935 364.276 499.04Q364.054 499.145 363.827 499.239Q363.6 499.333 363.369 499.415Q363.138 499.498 362.903 499.569Q362.668 499.641 362.43 499.7Q362.192 499.76 361.951 499.808Q361.71 499.856 361.467 499.892Q361.224 499.928 360.98 499.952Q360.736 499.976 360.491 499.988Q360.245 500 360 500L90 500Q89.7545 500 89.5093 499.988Q89.2641 499.976 89.0198 499.952Q88.7755 499.928 88.5327 499.892Q88.2898 499.856 88.0491 499.808Q87.8083 499.76 87.5702 499.7Q87.3321 499.641 87.0972 499.569Q86.8622 499.498 86.6311 499.415Q86.3999 499.333 86.1731 499.239Q85.9463 499.145 85.7244 499.04Q85.5025 498.935 85.286 498.819Q85.0695 498.703 84.859 498.577Q84.6484 498.451 84.4443 498.315Q84.2402 498.178 84.043 498.032Q83.8458 497.886 83.6561 497.73Q83.4663 497.574 83.2844 497.409Q83.1025 497.245 82.9289 497.071Q82.7553 496.897 82.5905 496.716Q82.4256 496.534 82.2699 496.344Q82.1142 496.154 81.9679 495.957Q81.8217 495.76 81.6853 495.556Q81.5489 495.352 81.4227 495.141Q81.2965 494.93 81.1808 494.714Q81.0651 494.497 80.9601 494.275Q80.8551 494.054 80.7612 493.827Q80.6673 493.6 80.5845 493.369Q80.5018 493.138 80.4306 492.903Q80.3593 492.668 80.2997 492.43Q80.24 492.192 80.1921 491.951Q80.1442 491.71 80.1082 491.467Q80.0722 491.224 80.0482 490.98Q80.0241 490.736 80.012 490.491Q80 490.246 80 490Z"/>
	<path fill="none" stroke="#8A2BE2" stroke-width="3" stroke-linecap="round" stroke-miterlimit="4" d="M50 125L400 125"/>
	<path fill="none" stroke="#8A2BE2" stroke-width="3" stroke-linecap="round" stroke-miterlimit="4" d="M50 375L400 375"/>
	<path fill="#8D0B3D" d="M90 230L90 20Q90 19.7545 90.012 19.5093Q90.0241 19.2641 90.0482 19.0198Q90.0722 18.7755 90.1082 18.5327Q90.1443 18.2899 90.1921 18.0491Q90.24 17.8083 90.2997 17.5702Q90.3593 17.3321 90.4306 17.0972Q90.5019 16.8622 90.5845 16.6311Q90.6673 16.4 90.7612 16.1732Q90.8551 15.9464 90.9601 15.7244Q91.0651 15.5025 91.1808 15.286Q91.2965 15.0695 91.4227 14.859Q91.5489 14.6484 91.6853 14.4443Q91.8217 14.2402 91.9679 14.043Q92.1142 13.8458 92.2699 13.6561Q92.4256 13.4663 92.5905 13.2844Q92.7553 13.1025 92.9289 12.9289Q93.1025 12.7553 93.2844 12.5905Q93.4663 12.4256 93.6561 12.2699Q93.8458 12.1142 94.043 11.9679Q94.2402 11.8217 94.4443 11.6853Q94.6484 11.5489 94.859 11.4227Q95.0695 11.2965 95.286 11.1808Q95.5025 11.0651 95.7244 10.9601Q95.9464 10.8551 96.1732 10.7612Q96.4 10.6673 96.6311 10.5846Q96.8622 10.5019 97.0972 10.4306Q97.3321 10.3593 97.5702 10.2997Q97.8083 10.24 98.0491 10.1921Q98.2899 10.1443 98.5327 10.1082Q98.7755 10.0722 99.0198 10.0482Q99.2641 10.0241 99.5093 10.012Q99.7545 10 100 10L350 10Q350.245 10 350.491 10.012Q350.736 10.0241 350.98 10.0482Q351.224 10.0722 351.467 10.1082Q351.71 10.1443 351.951 10.1921Q352.192 10.24 352.43 10.2997Q352.668 10.3593 352.903 10.4306Q353.138 10.5019 353.369 10.5846Q353.6 10.6673 353.827 10.7612Q354.054 10.8551 354.276 10.9601Q354.497 11.0651 354.714 11.1808Q354.93 11.2965 355.141 11.4227Q355.352 11.5489 355.556 11.6853Q355.76 11.8217 355.957 11.9679Q356.154 12.1142 356.344 12.2699Q356.534 12.4256 356.716 12.5905Q356.897 12.7553 357.071 12.9289Q357.245 13.1025 357.41 13.2844Q357.574 13.4663 357.73 13.6561Q357.886 13.8458 358.032 14.043Q358.178 14.2402 358.315 14.4443Q358.451 14.6484 358.577 14.859Q358.703 15.0695 358.819 15.286Q358.935 15.5025 359.04 15.7244Q359.145 15.9464 359.239 16.1732Q359.333 16.4 359.415 16.6311Q359.498 16.8622 359.569 17.0972Q359.641 17.3321 359.7 17.5702Q359.76 17.8083 359.808 18.0491Q359.856 18.2899 359.892 18.5327Q359.928 18.7755 359.952 19.0198Q359.976 19.2641 359.988 19.5093Q360 19.7545 360 20L360 230Q360 230.245 359.988 230.491Q359.976 230.736 359.952 230.98Q359.928 231.224 359.892 231.467Q359.856 231.71 359.808 231.951Q359.76 232.192 359.7 232.43Q359.641 232.668 359.569 232.903Q359.498 233.138 359.415 233.369Q359.333 233.6 359.239 233.827Q359.145 234.054 359.04 234.276Q358.935 234.497 358.819 234.714Q358.703 234.93 358.577 235.141Q358.451 235.352 358.315 235.556Q358.178 235.76 358.032 235.957Q357.886 236.154 357.73 236.344Q357.574 236.534 357.41 236.716Q357.245 236.897 357.071 237.071Q356.897 237.245 356.716 237.41Q356.534 237.574 356.344 237.73Q356.154 237.886 355.957 238.032Q355.76 238.178 355.556 238.315Q355.352 238.451 355.141 238.577Q354.93 238.703 354.714 238.819Q354.497 238.935 354.276 239.04Q354.054 239.145 353.827 239.239Q353.6 239.333 353.369 239.415Q353.138 239.498 352.903 239.569Q352.668 239.641 352.43 239.7Q352.192 239.76 351.951 239.808Q351.71 239.856 351.467 239.892Q351.224 239.928 350.98 239.952Q350.736 239.976 350.491 239.988Q350.245 240 350 240L100 240Q99.7545 240 99.5093 239.988Q99.2641 239.976 99.0198 239.952Q98.7755 239.928 98.5327 239.892Q98.2899 239.856 98.0491 239.808Q97.8083 239.76 97.5702 239.7Q97.3321 239.641 97.0972 239.569Q96.8622 239.498 96.6311 239.415Q96.4 239.333 96.1732 239.239Q95.9464 239.145 95.7244 239.04Q95.5025 238.935 95.286 238.819Q95.0695 238.703 94.859 238.577Q94.6484 238.451 94.4443 238.315Q94.2402 238.178 94.043 238.032Q93.8458 237.886 93.6561 237.73Q93.4663 237.574 93.2844 237.41Q93.1025 237.245 92.9289 237.071Q92.7553 236.897 92.5905 236.716Q92.4256 236.534 92.2699 236.344Q92.1142 236.154 91.9679 235.957Q91.8217 235.76 91.6853 235.556Q91.5489 235.352 91.4227 235.141Q91.2965 234.93 91.1808 234.714Q91.0651 234.497 90.9601 234.276Q90.8551 234.054 90.7612 233.827Q90.6673 233.6 90.5845 233.369Q90.5019 233.138 90.4306 232.903Q90.3593 232.668 90.2997 232.43Q90.24 232.192 90.1921 231.951Q90.1443 231.71 90.1082 231.467Q90.0722 231.224 90.0482 230.98Q90.0241 230.736 90.012 230.491Q90 230.245 90 230Z"/>
	<text fill="white" font-size="20" font-family="CaskaydiaCove Nerd Font" x="152, " y="130, ">
			H
	</text>
	<path fill="#DBC7AF" fill-opacity="0.27450982" d="M400 490L400 10Q400 9.75451 400.012 9.50932Q400.024 9.26413 400.048 9.01983Q400.072 8.77552 400.108 8.53269Q400.144 8.28987 400.192 8.0491Q400.24 7.80833 400.3 7.5702Q400.359 7.33207 400.431 7.09715Q400.502 6.86224 400.584 6.6311Q400.667 6.39996 400.761 6.17316Q400.855 5.94636 400.96 5.72445Q401.065 5.50253 401.181 5.28603Q401.296 5.06953 401.423 4.85897Q401.549 4.64841 401.685 4.4443Q401.822 4.24018 401.968 4.04301Q402.114 3.84583 402.27 3.65607Q402.426 3.4663 402.59 3.28441Q402.755 3.10252 402.929 2.92893Q403.102 2.75535 403.284 2.59049Q403.466 2.42563 403.656 2.2699Q403.846 2.11416 404.043 1.96792Q404.24 1.82169 404.444 1.6853Q404.648 1.54892 404.859 1.42271Q405.07 1.29651 405.286 1.18079Q405.503 1.06507 405.724 0.960107Q405.946 0.855148 406.173 0.761205Q406.4 0.667261 406.631 0.584559Q406.862 0.501857 407.097 0.430597Q407.332 0.359336 407.57 0.299687Q407.808 0.240039 408.049 0.192147Q408.29 0.144255 408.533 0.108235Q408.776 0.0722146 409.02 0.0481527Q409.264 0.0240909 409.509 0.0120454Q409.754 0 410 0L680 0Q680.245 0 680.491 0.0120454Q680.736 0.0240909 680.98 0.0481527Q681.224 0.0722146 681.467 0.108235Q681.71 0.144255 681.951 0.192147Q682.192 0.240039 682.43 0.299687Q682.668 0.359336 682.903 0.430597Q683.138 0.501857 683.369 0.584559Q683.6 0.667261 683.827 0.761205Q684.054 0.855148 684.275 0.960107Q684.497 1.06507 684.714 1.18079Q684.93 1.29651 685.141 1.42271Q685.352 1.54892 685.556 1.6853Q685.76 1.82169 685.957 1.96792Q686.154 2.11416 686.344 2.2699Q686.534 2.42563 686.716 2.59049Q686.897 2.75535 687.071 2.92893Q687.245 3.10252 687.409 3.28441Q687.574 3.4663 687.73 3.65607Q687.886 3.84583 688.032 4.04301Q688.178 4.24018 688.315 4.4443Q688.451 4.64841 688.577 4.85897Q688.703 5.06953 688.819 5.28603Q688.935 5.50253 689.04 5.72445Q689.145 5.94636 689.239 6.17316Q689.333 6.39996 689.415 6.6311Q689.498 6.86224 689.569 7.09715Q689.641 7.33207 689.7 7.5702Q689.76 7.80833 689.808 8.0491Q689.856 8.28987 689.892 8.53269Q689.928 8.77552 689.952 9.01983Q689.976 9.26413 689.988 9.50932Q690 9.75451 690 10L690 490Q690 490.246 689.988 490.491Q689.976 490.736 689.952 490.98Q689.928 491.224 689.892 491.467Q689.856 491.71 689.808 491.951Q689.76 492.192 689.7 492.43Q689.641 492.668 689.569 492.903Q689.498 493.138 689.415 493.369Q689.333 493.6 689.239 493.827Q689.145 494.054 689.04 494.275Q688.935 494.497 688.819 494.714Q688.703 494.93 688.577 495.141Q688.451 495.352 688.315 495.556Q688.178 495.76 688.032 495.957Q687.886 496.154 687.73 496.344Q687.574 496.534 687.409 496.716Q687.245 496.897 687.071 497.071Q686.897 497.245 686.716 497.409Q686.534 497.574 686.344 497.73Q686.154 497.886 685.957 498.032Q685.76 498.178 685.556 498.315Q685.352 498.451 685.141 498.577Q684.93 498.703 684.714 498.819Q684.497 498.935 684.275 499.04Q684.054 499.145 683.827 499.239Q683.6 499.333 683.369 499.415Q683.138 499.498 682.903 499.569Q682.668 499.641 682.43 499.7Q682.192 499.76 681.951 499.808Q681.71 499.856 681.467 499.892Q681.224 499.928 680.98 499.952Q680.736 499.976 680.491 499.988Q680.245 500 680 500L410 500Q409.754 500 409.509 499.988Q409.264 499.976 409.02 499.952Q408.776 499.928 408.533 499.892Q408.29 499.856 408.049 499.808Q407.808 499.76 407.57 499.7Q407.332 499.641 407.097 499.569Q406.862 499.498 406.631 499.415Q406.4 499.333 406.173 499.239Q405.946 499.145 405.724 499.04Q405.503 498.935 405.286 498.819Q405.07 498.703 404.859 498.577Q404.648 498.451 404.444 498.315Q404.24 498.178 404.043 498.032Q403.846 497.886 403.656 497.73Q403.466 497.574 403.284 497.409Q403.102 497.245 402.929 497.071Q402.755 496.897 402.59 496.716Q402.426 496.534 402.27 496.344Q402.114 496.154 401.968 495.957Q401.822 495.76 401.685 495.556Q401.549 495.352 401.423 495.141Q401.296 494.93 401.181 494.714Q401.065 494.497 400.96 494.275Q400.855 494.054 400.761 493.827Q400.667 493.6 400.584 493.369Q400.502 493.138 400.431 492.903Q400.359 492.668 400.3 492.43Q400.24 492.192 400.192 491.951Q400.144 491.71 400.108 491.467Q400.072 491.224 400.048 490.98Q400.024 490.736 400.012 490.491Q400 490.246 400 490Z"/>
	<path fill="none" stroke="#8A2BE2" stroke-width="3" stroke-linecap="round" stroke-miterlimit="4" d="M370 125L720 125"/>
	<path fill="none" stroke="#8A2BE2" stroke-width="3" stroke-linecap="round" stroke-miterlimit="4" d="M370 375L720 375"/>
	<path fill="#8D0B3D" d="M410 230L410 20Q410 19.7545 410.012 19.5093Q410.024 19.2641 410.048 19.0198Q410.072 18.7755 410.108 18.5327Q410.144 18.2899 410.192 18.0491Q410.24 17.8083 410.3 17.5702Q410.359 17.3321 410.431 17.0972Q410.502 16.8622 410.585 16.6311Q410.667 16.4 410.761 16.1732Q410.855 15.9464 410.96 15.7244Q411.065 15.5025 411.181 15.286Q411.297 15.0695 411.423 14.859Q411.549 14.6484 411.685 14.4443Q411.822 14.2402 411.968 14.043Q412.114 13.8458 412.27 13.6561Q412.426 13.4663 412.59 13.2844Q412.755 13.1025 412.929 12.9289Q413.102 12.7553 413.284 12.5905Q413.466 12.4256 413.656 12.2699Q413.846 12.1142 414.043 11.9679Q414.24 11.8217 414.444 11.6853Q414.648 11.5489 414.859 11.4227Q415.069 11.2965 415.286 11.1808Q415.502 11.0651 415.724 10.9601Q415.946 10.8551 416.173 10.7612Q416.4 10.6673 416.631 10.5846Q416.862 10.5019 417.097 10.4306Q417.332 10.3593 417.57 10.2997Q417.808 10.24 418.049 10.1921Q418.29 10.1443 418.533 10.1082Q418.776 10.0722 419.02 10.0482Q419.264 10.0241 419.509 10.012Q419.755 10 420 10L670 10Q670.245 10 670.491 10.012Q670.736 10.0241 670.98 10.0482Q671.224 10.0722 671.467 10.1082Q671.71 10.1443 671.951 10.1921Q672.192 10.24 672.43 10.2997Q672.668 10.3593 672.903 10.4306Q673.138 10.5019 673.369 10.5846Q673.6 10.6673 673.827 10.7612Q674.054 10.8551 674.275 10.9601Q674.497 11.0651 674.714 11.1808Q674.93 11.2965 675.141 11.4227Q675.352 11.5489 675.556 11.6853Q675.76 11.8217 675.957 11.9679Q676.154 12.1142 676.344 12.2699Q676.534 12.4256 676.716 12.5905Q676.897 12.7553 677.071 12.9289Q677.245 13.1025 677.409 13.2844Q677.574 13.4663 677.73 13.6561Q677.886 13.8458 678.032 14.043Q678.178 14.2402 678.315 14.4443Q678.451 14.6484 678.577 14.859Q678.703 15.0695 678.819 15.286Q678.935 15.5025 679.04 15.7244Q679.145 15.9464 679.239 16.1732Q679.333 16.4 679.415 16.6311Q679.498 16.8622 679.569 17.0972Q679.641 17.3321 679.7 17.5702Q679.76 17.8083 679.808 18.0491Q679.856 18.2899 679.892 18.5327Q679.928 18.7755 679.952 19.0198Q679.976 19.2641 679.988 19.5093Q680 19.7545 680 20L680 230Q680 230.245 679.988 230.491Q679.976 230.736 679.952 230.98Q679.928 231.224 679.892 231.467Q679.856 231.71 679.808 231.951Q679.76 232.192 679.7 232.43Q679.641 232.668 679.569 232.903Q679.498 233.138 679.415 233.369Q679.333 233.6 679.239 233.827Q679.145 234.054 679.04 234.276Q678.935 234.497 678.819 234.714Q678.703 234.93 678.577 235.141Q678.451 235.352 678.315 235.556Q678.178 235.76 678.032 235.957Q677.886 236.154 677.73 236.344Q677.574 236.534 677.409 236.716Q677.245 236.897 677.071 237.071Q676.897 237.245 676.716 237.41Q676.534 237.574 676.344 237.73Q676.154 237.886 675.957 238.032Q675.76 238.178 675.556 238.315Q675.352 238.451 675.141 238.577Q674.93 238.703 674.714 238.819Q674.497 238.935 674.275 239.04Q674.054 239.145 673.827 239.239Q673.6 239.333 673.369 239.415Q673.138 239.498 672.903 239.569Q672.668 239.641 672.43 239.7Q672.192 239.76 671.951 239.808Q671.71 239.856 671.467 239.892Q671.224 239.928 670.98 239.952Q670.736 239.976 670.491 239.988Q670.245 240 670 240L420 240Q419.755 240 419.509 239.988Q419.264 239.976 419.02 239.952Q418.776 239.928 418.533 239.892Q418.29 239.856 418.049 239.808Q417.808 239.76 417.57 239.7Q417.332 239.641 417.097 239.569Q416.862 239.498 416.631 239.415Q416.4 239.333 416.173 239.239Q415.946 239.145 415.724 239.04Q415.503 238.935 415.286 238.819Q415.069 238.703 414.859 238.577Q414.648 238.451 414.444 238.315Q414.24 238.178 414.043 238.032Q413.846 237.886 413.656 237.73Q413.466 237.574 413.284 237.41Q413.102 237.245 412.929 237.071Q412.755 236.897 412.59 236.716Q412.426 236.534 412.27 236.344Q412.114 236.154 411.968 235.957Q411.822 235.76 411.685 235.556Q411.549 235.352 411.423 235.141Q411.296 234.93 411.181 234.714Q411.065 234.497 410.96 234.276Q410.855 234.054 410.761 233.827Q410.667 233.6 410.585 233.369Q410.502 233.138 410.431 232.903Q410.359 232.668 410.3 232.43Q410.24 232.192 410.192 231.951Q410.144 231.71 410.108 231.467Q410.072 231.224 410.048 230.98Q410.024 230.736 410.012 230.491Q410 230.245 410 230Z"/>
	<text fill="white" font-size="20" font-family="CaskaydiaCove Nerd Font" x="472, " y="130, ">
			H
	</text>
</svg>
