<?xml version="1.0" standalone="no"?>
<!DOCTYPE svg PUBLIC "-//W3C//DTD SVG 20010904//EN"
 "http://www.w3.org/TR/2001/REC-SVG-20010904/DTD/svg10.dtd">
<svg version="1.0" xmlns="http://www.w3.org/2000/svg"
 width="440.000000pt" height="440.000000pt" viewBox="0 0 440.000000 440.000000"
 preserveAspectRatio="xMidYMid meet">
<metadata>
Created by potrace 1.14, written by Peter Selinger 2001-2017
</metadata>
<g transform="translate(0.000000,440.000000) scale(0.100000,-0.100000)"
fill="#000000" stroke="none">
<path d="M3335 3619 c-99 -7 -130 -14 -305 -73 -107 -37 -256 -95 -330 -130
-74 -35 -184 -81 -245 -101 -60 -21 -127 -46 -147 -56 -66 -34 -74 -32 -492
128 -93 36 -175 71 -183 79 -18 18 -238 87 -379 119 -287 65 -483 30 -541 -97
-19 -39 -20 -53 -12 -141 15 -168 67 -354 138 -496 38 -74 41 -129 8 -152 -12
-8 -60 -30 -107 -48 -190 -74 -476 -256 -530 -337 -23 -34 -25 -47 -25 -138 0
-91 3 -106 28 -153 35 -68 134 -143 277 -211 140 -67 150 -79 162 -189 17
-159 16 -154 69 -204 58 -55 59 -64 25 -187 -25 -90 -46 -241 -46 -335 0 -43
6 -62 28 -93 127 -175 392 -178 794 -9 56 23 85 41 82 49 -3 8 16 19 53 30
142 43 195 62 293 109 58 27 123 55 145 64 52 19 153 18 224 -3 48 -13 220
-81 229 -89 1 -1 -7 -38 -19 -81 -33 -121 -20 -220 50 -364 4 -8 27 -25 52
-38 38 -20 54 -23 114 -19 163 12 268 107 292 265 l8 49 75 -30 c144 -57 332
-82 422 -55 60 18 123 79 143 138 16 48 16 57 -5 181 -25 152 -63 294 -120
445 -22 58 -40 116 -40 128 0 18 17 29 93 61 210 88 396 199 505 300 33 30 64
55 68 55 5 0 20 17 32 36 21 32 24 46 20 118 -6 160 -67 226 -374 412 -85 51
-180 101 -210 111 -63 20 -100 49 -110 88 -7 28 2 58 81 258 50 130 75 258 75
392 l0 80 -45 52 c-70 80 -130 95 -320 82z m173 -127 l37 -30 -1 -103 c-1
-109 -9 -149 -71 -349 -30 -95 -42 -121 -73 -152 -34 -34 -43 -38 -91 -38 -58
0 -184 32 -239 60 -19 10 -49 32 -67 48 -18 17 -33 26 -35 20 -5 -13 -117 29
-144 54 -15 13 -23 16 -26 7 -5 -14 -45 -2 -247 74 l-133 50 23 19 c13 10 58
35 98 56 63 31 85 37 137 37 57 0 61 1 48 16 -13 15 -10 18 31 28 31 8 51 8
65 1 26 -14 29 -13 24 8 -5 18 37 38 320 154 214 87 277 95 344 40z m-2300
-48 c121 -24 462 -140 637 -216 88 -38 162 -72 164 -74 3 -2 -4 -11 -15 -19
-40 -32 -115 -65 -260 -115 -82 -29 -156 -58 -165 -66 -8 -8 -35 -18 -60 -23
-24 -5 -127 -40 -229 -79 -234 -88 -243 -90 -273 -60 -38 39 -131 324 -143
441 -11 107 21 182 91 213 41 18 160 17 253 -2z m1167 -443 c88 -32 320 -128
402 -166 68 -32 129 -87 158 -144 12 -25 39 -93 60 -151 21 -58 52 -134 70
-170 86 -172 85 -263 -8 -447 -14 -28 -44 -102 -66 -166 -48 -139 -61 -166
-108 -218 -40 -44 -99 -78 -183 -104 -30 -10 -140 -49 -245 -87 -257 -94 -266
-95 -430 -26 -71 31 -204 83 -295 117 -198 75 -221 94 -265 216 -65 185 -138
363 -168 409 -21 33 -31 62 -31 85 0 40 206 538 248 601 34 52 90 83 259 145
78 29 171 65 207 80 106 45 140 54 230 54 70 1 100 -5 165 -28z m-1025 -295
c0 -15 -7 -26 -19 -29 -14 -3 -22 -17 -26 -43 -20 -124 -93 -286 -119 -265
-42 35 -104 207 -92 255 8 31 70 69 146 90 85 23 110 21 110 -8z m1848 3 c35
-6 74 -21 88 -32 24 -19 26 -25 22 -86 -3 -48 -13 -86 -37 -139 -19 -40 -39
-71 -45 -69 -22 7 -55 70 -93 179 -22 62 -43 126 -47 141 -6 27 -5 28 21 23
15 -3 56 -11 91 -17z m440 -183 c276 -111 451 -255 452 -371 1 -127 -372 -387
-589 -411 l-46 -6 -22 54 c-13 29 -34 86 -47 126 -14 40 -34 85 -45 100 -41
57 -35 198 13 312 38 90 93 224 99 242 6 16 10 16 49 4 24 -7 85 -30 136 -50z
m-2704 23 c29 -14 44 -43 89 -179 19 -58 43 -125 52 -150 12 -33 16 -65 13
-120 -6 -89 -35 -154 -98 -215 l-41 -40 -122 1 c-104 0 -134 4 -204 27 -99 33
-183 88 -257 168 -65 70 -75 98 -53 145 25 51 158 185 240 242 165 113 301
157 381 121z m321 -706 c35 -71 83 -228 73 -238 -11 -12 -238 85 -259 111 -18
22 -5 61 53 162 l53 93 22 -28 c13 -15 39 -60 58 -100z m1999 55 c28 -48 66
-160 66 -193 0 -35 -42 -65 -151 -106 -57 -21 -104 -39 -106 -39 -5 0 51 149
99 263 28 64 54 117 59 117 4 0 19 -19 33 -42z m-2315 -188 c19 -5 38 -15 43
-22 25 -41 -18 -145 -72 -173 -58 -30 -105 -17 -139 39 -30 47 -28 101 5 131
35 32 102 43 163 25z m350 -234 c203 -88 236 -101 404 -161 181 -65 297 -116
297 -132 0 -18 -190 -122 -227 -123 -6 0 -118 -43 -250 -96 -296 -118 -366
-138 -498 -139 -84 0 -106 3 -135 21 l-35 20 1 125 c1 105 5 135 27 197 35
101 81 174 149 237 32 30 65 70 75 90 11 23 22 34 31 30 8 -3 80 -34 161 -69z
m2108 15 c10 -11 49 -106 88 -212 61 -171 69 -202 73 -280 4 -81 2 -92 -22
-132 -23 -40 -31 -45 -71 -51 -72 -11 -184 11 -377 75 -198 65 -230 79 -251
109 -8 11 -20 18 -28 15 -8 -2 -36 1 -64 8 -43 12 -47 15 -27 21 36 12 25 25
-16 19 -46 -6 -153 24 -218 62 -45 26 -45 27 -27 47 10 11 36 31 58 44 52 30
229 94 260 94 15 0 25 6 25 14 0 14 108 49 138 44 9 -1 33 7 54 20 53 33 307
121 350 121 24 1 43 -6 55 -18z m-626 -657 c30 -8 62 -24 72 -36 32 -38 17
-167 -23 -188 -47 -25 -134 2 -160 51 -7 13 -10 48 -8 87 3 53 8 68 27 83 28
23 24 23 92 3z"/>
<path d="M2110 2481 c-80 -82 -135 -128 -230 -190 -90 -59 -129 -90 -138 -112
-7 -17 -10 -34 -7 -39 3 -6 52 -42 108 -82 125 -89 239 -189 292 -256 40 -51
90 -83 104 -66 4 5 33 41 65 81 61 77 148 152 262 227 75 50 109 94 103 136
-4 26 -28 45 -164 133 -57 37 -107 83 -177 162 -54 61 -102 111 -106 112 -4 1
-54 -47 -112 -106z m166 -193 c51 -45 94 -106 94 -134 0 -29 -89 -127 -131
-144 -40 -17 -53 -9 -147 91 l-71 75 58 51 c67 59 119 93 143 93 10 0 34 -15
54 -32z"/>
</g>
</svg>
